<svg width="293" height="35" viewBox="0 0 293 35" fill="none" xmlns="http://www.w3.org/2000/svg">
  <path d="M3.89623 2.3156H5.41563V2.7984C5.41563 5.0562 4.23703 7.0442 1.72363 7.74L0.843234 6.2774C2.97323 5.6952 3.89623 4.2468 3.89623 2.7984V2.3156ZM4.25123 2.3156H5.78483V2.7984C5.78483 4.1332 6.69363 5.4964 8.80943 6.0502L7.95743 7.527C5.42983 6.8596 4.25123 4.9426 4.25123 2.7984V2.3156ZM1.31183 1.421H8.36923V2.8978H1.31183V1.421ZM3.89623 0.0719997H5.78483V2.06H3.89623V0.0719997ZM9.40583 0.1146H11.2944V7.811H9.40583V0.1146ZM10.769 3.1818H13.041V4.7296H10.769V3.1818ZM2.74603 8.3648H11.2944V13.1218H2.74603V8.3648ZM9.44843 9.8416H4.60623V11.6308H9.44843V9.8416ZM20.7221 2.557H23.3917V4.0906H20.7221V2.557ZM17.0159 0.7962H18.5637V2.0316C18.5637 4.6302 17.4135 6.888 14.9143 7.7542L13.9203 6.2632C16.1213 5.539 17.0159 3.8066 17.0159 2.0316V0.7962ZM17.3993 0.7962H18.9187V2.1452C18.9187 3.7782 19.7991 5.3828 21.8581 6.0502L20.8783 7.527C18.4927 6.7034 17.3993 4.5734 17.3993 2.1452V0.7962ZM16.0503 8.5352H25.0105V13.2638H23.1219V10.0262H16.0503V8.5352ZM23.1219 0.1146H25.0105V7.9388H23.1219V0.1146ZM35.998 2.7984H39.5764V4.3178H35.998V2.7984ZM35.998 6.8738H39.5764V8.3932H35.998V6.8738ZM33.726 1.0234C35.6856 1.0234 37.1198 2.841 37.1198 5.7094C37.1198 8.6062 35.6856 10.4238 33.726 10.4238C31.7522 10.4238 30.3322 8.6062 30.3322 5.7094C30.3322 2.841 31.7522 1.0234 33.726 1.0234ZM33.726 2.7416C32.7746 2.7416 32.1214 3.7782 32.1214 5.7094C32.1214 7.669 32.7746 8.7198 33.726 8.7198C34.6916 8.7198 35.3306 7.669 35.3306 5.7094C35.3306 3.7782 34.6916 2.7416 33.726 2.7416ZM39.2782 0.100399H41.1526V13.2922H39.2782V0.100399ZM43.1821 7.6832H55.0959V9.1742H43.1821V7.6832ZM48.1521 8.4358H50.0265V13.2638H48.1521V8.4358ZM44.5453 0.6116H46.4197V2.1026H51.8157V0.6116H53.6901V6.4336H44.5453V0.6116ZM46.4197 3.5794V4.9284H51.8157V3.5794H46.4197ZM56.245 6.0076H68.1588V7.385H56.245V6.0076ZM57.5798 8.0382H66.7388V11.1622H59.4826V12.284H57.6082V9.9694H64.8786V9.3162H57.5798V8.0382ZM57.6082 11.8864H67.108V13.1644H57.6082V11.8864ZM57.7076 0.3418H66.7104V3.4374H59.5962V4.5166H57.7218V2.2588H64.8502V1.6056H57.7076V0.3418ZM57.7218 4.119H66.9518V5.397H57.7218V4.119ZM80.8218 0.1146H82.7105V6.675H80.8218V0.1146ZM81.9436 2.628H84.4428V4.1758H81.9436V2.628ZM74.02 7.2004H82.7105V10.8072H75.9228V12.3692H74.0484V9.444H80.8502V8.6488H74.02V7.2004ZM74.0484 11.645H83.0939V13.1218H74.0484V11.645ZM75.9512 0.497999C77.9676 0.497999 79.4586 1.7334 79.4586 3.48C79.4586 5.2124 77.9676 6.462 75.9512 6.462C73.949 6.462 72.4438 5.2124 72.4438 3.48C72.4438 1.7334 73.949 0.497999 75.9512 0.497999ZM75.9512 2.0174C74.9856 2.0174 74.2756 2.557 74.2756 3.48C74.2756 4.403 74.9856 4.9568 75.9512 4.9568C76.931 4.9568 77.641 4.403 77.641 3.48C77.641 2.557 76.931 2.0174 75.9512 2.0174ZM94.5379 0.100399H96.4265V13.2922H94.5379V0.100399ZM92.3795 2.8978H94.8503V4.4172H92.3795V2.8978ZM85.8759 8.8192H86.9125C88.8579 8.8192 90.4767 8.7766 92.3653 8.4926L92.5215 10.0262C90.5903 10.3244 88.9147 10.367 86.9125 10.367H85.8759V8.8192ZM85.8475 1.208H91.7263V6.3058H87.7503V9.16H85.8759V4.8148H89.8661V2.7132H85.8475V1.208ZM92.3511 6.4762H94.8219V7.9956H92.3511V6.4762ZM103.355 1.5772H104.988V1.9606C104.988 4.2752 103.099 6.1638 99.7624 6.6182L99.0666 5.1414C101.963 4.7864 103.355 3.3096 103.355 1.9606V1.5772ZM103.895 1.5772H105.528V1.9606C105.528 3.3096 106.919 4.7864 109.816 5.1414L109.134 6.6182C105.783 6.1638 103.895 4.2752 103.895 1.9606V1.5772ZM103.454 8.45H105.329V13.278H103.454V8.45ZM98.4986 7.3708H110.384V8.876H98.4986V7.3708ZM99.5494 0.782H109.305V2.273H99.5494V0.782ZM114.757 1.1228H116.29V3.0398C116.29 6.4194 115.126 9.4724 112.513 10.6794L111.391 9.1174C113.677 8.1234 114.757 5.5958 114.757 3.0398V1.1228ZM115.126 1.1228H116.659V3.0398C116.659 5.468 117.696 7.882 119.94 8.8476L118.832 10.367C116.29 9.2026 115.126 6.2774 115.126 3.0398V1.1228ZM120.564 0.100399H122.467V13.2922H120.564V0.100399ZM130.958 2.1736H134.266V3.6788H130.958V2.1736ZM130.958 4.9994H134.323V6.5046H130.958V4.9994ZM125.15 1.1654H131.369V7.598H125.15V1.1654ZM129.509 2.6564H127.01V6.1212H129.509V2.6564ZM133.727 0.1288H135.615V9.6996H133.727V0.1288ZM126.911 11.5314H135.899V13.0366H126.911V11.5314ZM126.911 8.7908H128.813V12.3124H126.911V8.7908ZM141.349 8.5778H142.414C144.742 8.5778 146.262 8.521 147.966 8.2086L148.15 9.728C146.39 10.0546 144.813 10.1256 142.414 10.1256H141.349V8.5778ZM141.349 1.279H147.298V2.7842H143.237V9.16H141.349V1.279ZM149.883 0.1146H151.771V13.3064H149.883V0.1146ZM146.659 4.6444H150.678V6.178H146.659V4.6444ZM160.359 1.0234C162.361 1.0234 163.81 2.841 163.81 5.7094C163.81 8.6062 162.361 10.4238 160.359 10.4238C158.357 10.4238 156.909 8.6062 156.909 5.7094C156.909 2.841 158.357 1.0234 160.359 1.0234ZM160.359 2.7416C159.379 2.7416 158.726 3.7782 158.726 5.7094C158.726 7.669 159.379 8.7198 160.359 8.7198C161.339 8.7198 162.006 7.669 162.006 5.7094C162.006 3.7782 161.339 2.7416 160.359 2.7416ZM165.244 0.1146H167.147V13.2638H165.244V0.1146ZM166.721 5.0704H169.05V6.6324H166.721V5.0704ZM169.9 6.746H181.814V8.237H169.9V6.746ZM171.363 0.355999H180.366V3.8776H173.252V5.3118H171.377V2.5428H178.506V1.7902H171.363V0.355999ZM171.377 4.616H180.621V6.0502H171.377V4.616ZM171.406 9.0322H180.437V13.1218H171.406V9.0322ZM178.577 10.509H173.252V11.6308H178.577V10.509ZM191.427 0.1146H193.315V7.1578H191.427V0.1146ZM192.79 2.9404H195.062V4.474H192.79V2.9404ZM183.46 5.3402H184.554C187.408 5.3402 188.828 5.2692 190.404 4.9426L190.589 6.4336C188.984 6.7886 187.479 6.8596 184.554 6.8596H183.46V5.3402ZM183.46 0.895599H189.297V2.4008H185.335V6.3484H183.46V0.895599ZM184.724 7.7968H186.599V8.9896H191.441V7.7968H193.315V13.1076H184.724V7.7968ZM186.599 10.4522V11.6024H191.441V10.4522H186.599ZM205.554 0.1146H207.358V13.2638H205.554V0.1146ZM200.343 5.1556H203.155V6.6466H200.343V5.1556ZM202.785 0.3986H204.546V12.6816H202.785V0.3986ZM199.917 1.6624H201.735C201.735 5.4112 200.613 8.3932 196.921 10.5374L195.856 9.2168C198.852 7.4134 199.917 5.2266 199.917 2.0458V1.6624ZM196.594 1.6624H200.513V3.1676H196.594V1.6624ZM216.783 1.5062H218.459V1.8186C218.459 3.906 216.698 5.6668 213.347 6.0502L212.665 4.5592C215.519 4.2468 216.783 2.9546 216.783 1.8186V1.5062ZM217.706 1.5062H219.382V1.8186C219.382 2.9688 220.66 4.2468 223.514 4.5592L222.818 6.0502C219.481 5.6668 217.706 3.9202 217.706 1.8186V1.5062ZM213.219 0.682599H222.96V2.1594H213.219V0.682599ZM212.14 6.6608H224.039V8.166H212.14V6.6608ZM217.294 7.6122H219.197V10.3812H217.294V7.6122ZM213.517 11.5314H222.733V13.0366H213.517V11.5314ZM213.517 9.2594H215.392V12.0568H213.517V9.2594ZM234.22 0.100399H236.123V13.2922H234.22V0.100399ZM225.856 1.1512H227.73V4.3462H230.443V1.1512H232.317V10.225H225.856V1.1512ZM227.73 5.8088V8.7056H230.443V5.8088H227.73ZM238.251 2.0884H244.542V3.5936H238.251V2.0884ZM241.418 4.1758C243.094 4.1758 244.301 5.468 244.301 7.314C244.301 9.1458 243.094 10.438 241.418 10.438C239.757 10.438 238.535 9.1458 238.535 7.314C238.535 5.468 239.757 4.1758 241.418 4.1758ZM241.418 5.752C240.708 5.752 240.211 6.32 240.211 7.314C240.211 8.308 240.708 8.8618 241.418 8.8618C242.128 8.8618 242.639 8.308 242.639 7.314C242.639 6.32 242.128 5.752 241.418 5.752ZM247.765 0.1146H249.569V13.2638H247.765V0.1146ZM246.189 5.4538H248.362V6.9732H246.189V5.4538ZM245.011 0.355999H246.771V12.71H245.011V0.355999ZM240.495 0.4696H242.355V3.0398H240.495V0.4696ZM255.899 0.3134H257.759V1.1796H262.885V0.3134H264.76V4.7154H255.899V0.3134ZM257.759 2.557V3.3238H262.885V2.557H257.759ZM254.379 5.5532H266.265V7.03H254.379V5.5532ZM259.364 4.1048H261.238V5.9366H259.364V4.1048ZM255.743 7.7116H264.831V11.0486H257.617V12.2414H255.757V9.7564H262.97V9.089H255.743V7.7116ZM255.757 11.7728H265.171V13.1786H255.757V11.7728ZM276.97 0.1146H278.774V13.2638H276.97V0.1146ZM271.759 5.1556H274.571V6.6466H271.759V5.1556ZM274.201 0.3986H275.962V12.6816H274.201V0.3986ZM271.333 1.6624H273.151C273.151 5.4112 272.029 8.3932 268.337 10.5374L267.272 9.2168C270.268 7.4134 271.333 5.2266 271.333 2.0458V1.6624ZM268.01 1.6624H271.929V3.1676H268.01V1.6624ZM283.132 6.7886H285.007V10.4806H283.132V6.7886ZM287.903 6.7886H289.792V10.4806H287.903V6.7886ZM280.519 10.2108H292.419V11.7444H280.519V10.2108ZM286.455 0.753599C289.281 0.753599 291.368 2.1452 291.368 4.2894C291.368 6.4336 289.281 7.811 286.455 7.811C283.615 7.811 281.542 6.4336 281.542 4.2894C281.542 2.1452 283.615 0.753599 286.455 0.753599ZM286.455 2.2304C284.623 2.2304 283.402 2.983 283.402 4.2894C283.402 5.5816 284.623 6.3484 286.455 6.3484C288.287 6.3484 289.508 5.5816 289.508 4.2894C289.508 2.983 288.287 2.2304 286.455 2.2304Z" fill="#E6617A"/>
  <path d="M93.4335 32.1614C92.6872 32.1614 92.0434 31.9966 91.5022 31.6672C90.9643 31.3344 90.5492 30.8705 90.2567 30.2754C89.9676 29.677 89.823 28.9812 89.823 28.1878C89.823 27.3944 89.9676 26.6952 90.2567 26.0901C90.5492 25.4816 90.9559 25.0076 91.477 24.668C92.0014 24.3251 92.6133 24.1537 93.3125 24.1537C93.7159 24.1537 94.1143 24.2209 94.5076 24.3554C94.9009 24.4899 95.259 24.7084 95.5817 25.0109C95.9044 25.3101 96.1616 25.7068 96.3532 26.201C96.5448 26.6952 96.6406 27.3036 96.6406 28.0264V28.5307H90.6702V27.502H95.4304C95.4304 27.065 95.343 26.675 95.1682 26.3321C94.9967 25.9892 94.7513 25.7186 94.432 25.5202C94.116 25.3219 93.7428 25.2227 93.3125 25.2227C92.8385 25.2227 92.4284 25.3404 92.0821 25.5757C91.7392 25.8077 91.4753 26.1102 91.2904 26.4834C91.1055 26.8565 91.0131 27.2566 91.0131 27.6835V28.3693C91.0131 28.9543 91.1139 29.4501 91.3156 29.8569C91.5207 30.2603 91.8048 30.5679 92.1678 30.7797C92.5309 30.9881 92.9528 31.0923 93.4335 31.0923C93.7462 31.0923 94.0286 31.0486 94.2807 30.9612C94.5362 30.8705 94.7564 30.736 94.9413 30.5578C95.1262 30.3763 95.269 30.151 95.3699 29.8821L96.5196 30.2048C96.3986 30.5948 96.1952 30.9377 95.9094 31.2335C95.6237 31.526 95.2707 31.7546 94.8505 31.9193C94.4303 32.0807 93.958 32.1614 93.4335 32.1614ZM99.1304 24.2545L100.986 27.4213L102.842 24.2545H104.213L101.712 28.1273L104.213 32H102.842L100.986 28.9946L99.1304 32H97.7588L100.22 28.1273L97.7588 24.2545H99.1304ZM108.453 27.6432C108.453 28.9139 108.287 30.0838 107.954 31.1528C107.624 32.2185 107.152 33.2001 106.537 34.0977H105.488C105.73 33.7649 105.955 33.3548 106.164 32.8673C106.375 32.3832 106.56 31.8521 106.718 31.2739C106.876 30.6923 106.999 30.0922 107.086 29.4737C107.177 28.8517 107.223 28.2416 107.223 27.6432C107.223 26.8431 107.145 26.0312 106.991 25.2076C106.836 24.384 106.628 23.6192 106.365 22.9132C106.103 22.2072 105.811 21.6324 105.488 21.1886H106.537C107.152 22.0862 107.624 23.0695 107.954 24.1386C108.287 25.2042 108.453 26.3724 108.453 27.6432ZM120.45 29.1742C123.262 29.1742 124.852 29.8416 124.852 31.1338C124.852 32.4118 123.262 33.0792 120.45 33.0792C117.653 33.0792 116.048 32.4118 116.048 31.1338C116.048 29.8416 117.653 29.1742 120.45 29.1742ZM120.45 30.0546C118.405 30.0546 117.255 30.4238 117.255 31.1338C117.255 31.8296 118.405 32.213 120.45 32.213C122.509 32.213 123.645 31.8296 123.645 31.1338C123.645 30.4238 122.509 30.0546 120.45 30.0546ZM115.267 21.35H125.591V22.273H115.267V21.35ZM120.464 22.7842C123.106 22.7842 124.611 23.4232 124.611 24.616C124.611 25.823 123.106 26.4478 120.464 26.4478C117.809 26.4478 116.318 25.823 116.318 24.616C116.318 23.4232 117.809 22.7842 120.464 22.7842ZM120.464 23.622C118.604 23.622 117.568 23.977 117.568 24.616C117.568 25.2692 118.604 25.6242 120.464 25.6242C122.31 25.6242 123.347 25.2692 123.347 24.616C123.347 23.977 122.31 23.622 120.464 23.622ZM119.882 20.0862H121.047V21.9322H119.882V20.0862ZM114.657 27.4276H126.258V28.379H114.657V27.4276ZM119.882 26.107H121.047V27.8962H119.882V26.107ZM137.063 20.2708H138.256V26.817H137.063V20.2708ZM133.144 20.8956H134.436C134.436 24.1758 132.15 26.2064 128.373 27.0868L127.947 26.1212C131.326 25.3828 133.144 23.7214 133.144 21.492V20.8956ZM128.586 20.8956H133.939V21.8612H128.586V20.8956ZM129.949 27.4418H138.256V30.5658H131.142V32.5112H129.977V29.6854H137.077V28.379H129.949V27.4418ZM129.977 32.0426H138.682V32.9798H129.977V32.0426ZM140.797 26.5898H152.398V27.5554H140.797V26.5898ZM146.008 24.5308H147.172V26.9874H146.008V24.5308ZM142.259 24.1616H151.049V25.1272H142.259V24.1616ZM142.259 20.853H150.95V21.8044H143.424V24.7296H142.259V20.853ZM146.576 28.4784C149.317 28.4784 150.978 29.3162 150.978 30.7788C150.978 32.2698 149.317 33.0934 146.576 33.0934C143.835 33.0934 142.174 32.2698 142.174 30.7788C142.174 29.3162 143.835 28.4784 146.576 28.4784ZM146.576 29.3872C144.574 29.3872 143.367 29.8984 143.367 30.7788C143.367 31.6734 144.574 32.1704 146.576 32.1704C148.592 32.1704 149.785 31.6734 149.785 30.7788C149.785 29.8984 148.592 29.3872 146.576 29.3872ZM161.403 26.6892H162.596V29.6144H161.403V26.6892ZM162.014 21.0944C164.016 21.0944 165.45 22.3298 165.45 24.119C165.45 25.9082 164.016 27.1436 162.014 27.1436C160.012 27.1436 158.563 25.9082 158.563 24.119C158.563 22.3298 160.012 21.0944 162.014 21.0944ZM162.014 22.1168C160.679 22.1168 159.713 22.9262 159.713 24.119C159.713 25.3118 160.679 26.1354 162.014 26.1354C163.334 26.1354 164.3 25.3118 164.3 24.119C164.3 22.9262 163.334 22.1168 162.014 22.1168ZM167.126 20.2566H168.304V33.1218H167.126V20.2566ZM158.08 30.3386L157.91 29.3588C160.253 29.3588 163.491 29.3446 166.288 28.9044L166.387 29.7706C163.505 30.3244 160.367 30.3386 158.08 30.3386ZM178.758 32.1412C178.093 32.1412 177.499 32.0269 176.978 31.7983C176.461 31.5697 176.049 31.252 175.743 30.8452C175.44 30.4351 175.276 29.9594 175.249 29.4182H176.519C176.546 29.751 176.661 30.0384 176.862 30.2805C177.064 30.5192 177.328 30.704 177.654 30.8352C177.98 30.9663 178.341 31.0318 178.738 31.0318C179.182 31.0318 179.575 30.9545 179.918 30.7999C180.261 30.6452 180.53 30.4301 180.725 30.1544C180.92 29.8787 181.017 29.5594 181.017 29.1963C181.017 28.8164 180.923 28.4819 180.735 28.1928C180.547 27.9004 180.271 27.6718 179.908 27.507C179.545 27.3423 179.101 27.2599 178.577 27.2599H177.75V26.1506H178.577C178.987 26.1506 179.347 26.0766 179.656 25.9287C179.969 25.7808 180.212 25.5723 180.387 25.3034C180.565 25.0345 180.654 24.7185 180.654 24.3554C180.654 24.0058 180.577 23.7015 180.422 23.4427C180.268 23.1838 180.049 22.9821 179.767 22.8376C179.488 22.693 179.158 22.6207 178.778 22.6207C178.422 22.6207 178.086 22.6863 177.77 22.8174C177.457 22.9451 177.202 23.1317 177.003 23.3771C176.805 23.6192 176.698 23.9116 176.681 24.2545H175.471C175.491 23.7133 175.654 23.2393 175.96 22.8325C176.266 22.4224 176.666 22.103 177.16 21.8744C177.657 21.6458 178.204 21.5315 178.799 21.5315C179.437 21.5315 179.985 21.661 180.443 21.9198C180.9 22.1753 181.251 22.5132 181.496 22.9334C181.742 23.3536 181.865 23.8074 181.865 24.2949C181.865 24.8765 181.712 25.3723 181.406 25.7825C181.103 26.1926 180.691 26.4767 180.17 26.6347V26.7153C180.822 26.8229 181.332 27.1003 181.698 27.5474C182.065 27.9911 182.248 28.5408 182.248 29.1963C182.248 29.7577 182.095 30.262 181.789 30.7091C181.486 31.1528 181.073 31.5025 180.548 31.758C180.024 32.0134 179.427 32.1412 178.758 32.1412ZM190.071 22.344H193.778V23.3096H190.071V22.344ZM190.071 24.9H193.806V25.8514H190.071V24.9ZM193.323 20.2708H194.502V27.8678H193.323V20.2708ZM184.533 21.2364H190.398V26.9448H184.533V21.2364ZM189.234 22.1878H185.684V26.0076H189.234V22.1878ZM190.284 28.237C192.926 28.237 194.559 29.1316 194.559 30.6652C194.559 32.1988 192.926 33.0792 190.284 33.0792C187.629 33.0792 185.996 32.1988 185.996 30.6652C185.996 29.1316 187.629 28.237 190.284 28.237ZM190.284 29.1742C188.353 29.1742 187.175 29.728 187.175 30.6652C187.175 31.6024 188.353 32.1562 190.284 32.1562C192.216 32.1562 193.394 31.6024 193.394 30.6652C193.394 29.728 192.216 29.1742 190.284 29.1742ZM201.811 27.6432C201.811 26.3724 201.975 25.2042 202.305 24.1386C202.638 23.0695 203.112 22.0862 203.727 21.1886H204.776C204.534 21.5214 204.307 21.9316 204.095 22.419C203.887 22.9031 203.703 23.436 203.545 24.0175C203.387 24.5958 203.263 25.1942 203.172 25.8127C203.085 26.4313 203.041 27.0414 203.041 27.6432C203.041 28.4433 203.118 29.2551 203.273 30.0788C203.428 30.9024 203.636 31.6672 203.898 32.3732C204.16 33.0791 204.453 33.654 204.776 34.0977H203.727C203.112 33.2001 202.638 32.2185 202.305 31.1528C201.975 30.0838 201.811 28.9139 201.811 27.6432ZM206.138 26.9164H217.74V27.8678H206.138V26.9164ZM211.364 25.3402H212.528V27.3566H211.364V25.3402ZM211.364 20.2282H212.528V22.0174H211.364V20.2282ZM211.307 22.131H212.344V22.344C212.344 24.4456 209.987 25.6668 207.175 25.9508L206.82 25.042C209.305 24.829 211.307 23.8066 211.307 22.344V22.131ZM211.549 22.131H212.585V22.344C212.585 23.8066 214.587 24.829 217.072 25.042L216.717 25.9508C213.906 25.6668 211.549 24.4456 211.549 22.344V22.131ZM207.331 21.5204H216.561V22.4576H207.331V21.5204ZM211.932 28.8334C214.701 28.8334 216.334 29.586 216.334 30.9634C216.334 32.3408 214.701 33.0792 211.932 33.0792C209.163 33.0792 207.53 32.3408 207.53 30.9634C207.53 29.586 209.163 28.8334 211.932 28.8334ZM211.932 29.728C209.901 29.728 208.723 30.154 208.723 30.9634C208.723 31.7444 209.901 32.1846 211.932 32.1846C213.963 32.1846 215.141 31.7444 215.141 30.9634C215.141 30.154 213.963 29.728 211.932 29.728ZM223.326 29.8821V28.8534L227.865 21.6727H228.611V23.2662H228.107L224.678 28.692V28.7727H230.789V29.8821H223.326ZM228.187 32V29.5695V29.0904V21.6727H229.377V32H228.187ZM238.44 22.344H242.146V23.3096H238.44V22.344ZM238.44 24.9H242.175V25.8514H238.44V24.9ZM241.692 20.2708H242.871V27.8678H241.692V20.2708ZM232.902 21.2364H238.767V26.9448H232.902V21.2364ZM237.602 22.1878H234.052V26.0076H237.602V22.1878ZM238.653 28.237C241.294 28.237 242.927 29.1316 242.927 30.6652C242.927 32.1988 241.294 33.0792 238.653 33.0792C235.998 33.0792 234.365 32.1988 234.365 30.6652C234.365 29.1316 235.998 28.237 238.653 28.237ZM238.653 29.1742C236.722 29.1742 235.543 29.728 235.543 30.6652C235.543 31.6024 236.722 32.1562 238.653 32.1562C240.584 32.1562 241.763 31.6024 241.763 30.6652C241.763 29.728 240.584 29.1742 238.653 29.1742ZM248.975 20.7394C250.892 20.7394 252.298 21.9038 252.298 23.5936C252.298 25.2692 250.892 26.4336 248.975 26.4336C247.073 26.4336 245.667 25.2692 245.667 23.5936C245.667 21.9038 247.073 20.7394 248.975 20.7394ZM248.975 21.705C247.74 21.705 246.803 22.486 246.803 23.5936C246.803 24.7012 247.74 25.468 248.975 25.468C250.225 25.468 251.148 24.7012 251.148 23.5936C251.148 22.486 250.225 21.705 248.975 21.705ZM254.712 20.2708H255.905V26.8454H254.712V20.2708ZM247.598 27.4702H255.905V30.5942H248.777V32.5254H247.626V29.7138H254.741V28.4216H247.598V27.4702ZM247.626 32H256.331V32.9372H247.626V32ZM268.574 22.628H272.01V23.5936H268.574V22.628ZM268.46 25.2976H271.925V26.2632H268.46V25.2976ZM271.811 20.2708H272.99V27.9672H271.811V20.2708ZM267.793 21.2364H269.057C269.057 24.545 266.77 26.8596 263.078 27.9672L262.596 27.0158C265.876 26.0644 267.793 24.1758 267.793 21.7476V21.2364ZM263.263 21.2364H268.602V22.202H263.263V21.2364ZM268.815 28.1092C271.414 28.1092 273.061 29.0322 273.061 30.58C273.061 32.1278 271.414 33.0508 268.815 33.0508C266.217 33.0508 264.569 32.1278 264.569 30.58C264.569 29.0322 266.217 28.1092 268.815 28.1092ZM268.815 29.0322C266.941 29.0322 265.734 29.6144 265.734 30.58C265.734 31.5456 266.941 32.1136 268.815 32.1136C270.704 32.1136 271.911 31.5456 271.911 30.58C271.911 29.6144 270.704 29.0322 268.815 29.0322ZM275.488 27.6264H287.132V28.592H275.488V27.6264ZM280.685 28.2228H281.85V33.1076H280.685V28.2228ZM281.282 20.782C283.966 20.782 285.769 21.8754 285.769 23.5936C285.769 25.3118 283.966 26.4052 281.282 26.4052C278.612 26.4052 276.795 25.3118 276.795 23.5936C276.795 21.8754 278.612 20.782 281.282 20.782ZM281.282 21.7334C279.322 21.7334 277.987 22.4576 277.987 23.5936C277.987 24.7296 279.322 25.4538 281.282 25.4538C283.241 25.4538 284.562 24.7296 284.562 23.5936C284.562 22.4576 283.241 21.7334 281.282 21.7334ZM291.486 27.6432C291.486 28.9139 291.32 30.0838 290.987 31.1528C290.657 32.2185 290.185 33.2001 289.57 34.0977H288.521C288.763 33.7649 288.988 33.3548 289.197 32.8673C289.408 32.3832 289.593 31.8521 289.751 31.2739C289.909 30.6923 290.032 30.0922 290.119 29.4737C290.21 28.8517 290.256 28.2416 290.256 27.6432C290.256 26.8431 290.178 26.0312 290.024 25.2076C289.869 24.384 289.661 23.6192 289.398 22.9132C289.136 22.2072 288.844 21.6324 288.521 21.1886H289.57C290.185 22.0862 290.657 23.0695 290.987 24.1386C291.32 25.2042 291.486 26.3724 291.486 27.6432Z" fill="black" fill-opacity="0.47"/>
</svg>