<svg width="167" height="19" viewBox="0 0 167 19" fill="none" xmlns="http://www.w3.org/2000/svg">
<path d="M19.816 1.624H21.96V12.424H19.816V1.624ZM12.088 14.472H22.328V16.168H12.088V14.472ZM12.088 11.384H14.216V15.352H12.088V11.384ZM13.112 2.424H14.872V3.864C14.872 6.76 13.544 9.432 10.664 10.44L9.592 8.744C12.072 7.896 13.112 5.832 13.112 3.864V2.424ZM13.544 2.424H15.288V3.864C15.288 5.8 16.296 7.704 18.728 8.488L17.64 10.184C14.84 9.24 13.544 6.728 13.544 3.864V2.424ZM33.8948 1.608H36.0228V10.488H33.8948V1.608ZM35.4148 5.048H37.9908V6.792H35.4148V5.048ZM24.8868 8.2H26.1348C29.0468 8.2 30.8388 8.136 32.8868 7.752L33.0788 9.448C30.9988 9.848 29.1268 9.928 26.1348 9.928H24.8868V8.2ZM24.8708 2.488H31.6388V6.936H26.9988V9.24H24.8868V5.352H29.5428V4.168H24.8708V2.488ZM31.1588 10.792C34.2468 10.792 36.1668 11.848 36.1668 13.624C36.1668 15.4 34.2468 16.424 31.1588 16.424C28.0708 16.424 26.1348 15.4 26.1348 13.624C26.1348 11.848 28.0708 10.792 31.1588 10.792ZM31.1588 12.424C29.2388 12.424 28.2308 12.808 28.2308 13.624C28.2308 14.44 29.2388 14.824 31.1588 14.824C33.0788 14.824 34.0868 14.44 34.0868 13.624C34.0868 12.808 33.0788 12.424 31.1588 12.424ZM39.0775 8.968H52.4695V10.648H39.0775V8.968ZM40.5655 11.752H50.8535V16.424H48.7255V13.416H40.5655V11.752ZM44.7095 1.656H46.8215V3.832H44.7095V1.656ZM44.5815 3.992H46.4535V4.296C46.4535 6.536 44.3095 8.12 40.2775 8.408L39.6375 6.808C43.2055 6.584 44.5815 5.432 44.5815 4.296V3.992ZM45.0775 3.992H46.9495V4.296C46.9495 5.432 48.3255 6.584 51.8935 6.808L51.2535 8.408C47.2055 8.12 45.0775 6.536 45.0775 4.296V3.992ZM40.3575 2.984H51.1895V4.632H40.3575V2.984ZM57.6818 3H64.7698V12.824H57.6818V3ZM62.6738 4.664H59.7778V11.144H62.6738V4.664ZM66.7058 1.608H68.8498V16.424H66.7058V1.608ZM68.3698 7.192H70.9938V8.952H68.3698V7.192ZM78.6565 1.88C81.9205 1.88 84.0165 2.984 84.0165 4.776C84.0165 6.568 81.9205 7.656 78.6565 7.656C75.3925 7.656 73.2965 6.568 73.2965 4.776C73.2965 2.984 75.3925 1.88 78.6565 1.88ZM78.6565 3.528C76.6245 3.528 75.4885 3.928 75.4885 4.776C75.4885 5.608 76.6245 6.024 78.6565 6.024C80.6725 6.024 81.8245 5.608 81.8245 4.776C81.8245 3.928 80.6725 3.528 78.6565 3.528ZM73.5045 11.208H83.7445V16.264H73.5045V11.208ZM81.6645 12.888H75.6005V14.584H81.6645V12.888ZM71.9525 8.504H85.3445V10.184H71.9525V8.504ZM98.0448 5.432H101.501V7.144H98.0448V5.432ZM100.381 1.624H102.509V12.424H100.381V1.624ZM92.7328 14.472H102.845V16.168H92.7328V14.472ZM92.7328 11.512H94.8608V15.48H92.7328V11.512ZM93.5328 3.56H95.2608V4.488C95.2608 7.272 93.9488 9.848 91.1008 10.792L90.0288 9.096C92.4768 8.296 93.5328 6.36 93.5328 4.488V3.56ZM93.9808 3.56H95.6928V4.488C95.6928 6.216 96.7008 8.056 99.0368 8.84L97.9968 10.504C95.2448 9.592 93.9808 7.128 93.9808 4.488V3.56ZM90.6048 2.616H98.5728V4.296H90.6048V2.616ZM104.812 3.832H111.9V5.528H104.812V3.832ZM108.38 6.184C110.268 6.184 111.628 7.64 111.628 9.72C111.628 11.784 110.268 13.24 108.38 13.24C106.508 13.24 105.132 11.784 105.132 9.72C105.132 7.64 106.508 6.184 108.38 6.184ZM108.38 7.96C107.58 7.96 107.02 8.6 107.02 9.72C107.02 10.84 107.58 11.464 108.38 11.464C109.18 11.464 109.756 10.84 109.756 9.72C109.756 8.6 109.18 7.96 108.38 7.96ZM115.532 1.608H117.564V16.424H115.532V1.608ZM113.756 7.624H116.204V9.336H113.756V7.624ZM112.428 1.88H114.412V15.8H112.428V1.88ZM107.34 2.008H109.436V4.904H107.34V2.008ZM125.034 3.256H126.874V3.688C126.874 6.296 124.746 8.424 120.986 8.936L120.202 7.272C123.466 6.872 125.034 5.208 125.034 3.688V3.256ZM125.642 3.256H127.482V3.688C127.482 5.208 129.05 6.872 132.314 7.272L131.546 8.936C127.77 8.424 125.642 6.296 125.642 3.688V3.256ZM125.146 11H127.258V16.44H125.146V11ZM119.562 9.784H132.954V11.48H119.562V9.784ZM120.746 2.36H131.738V4.04H120.746V2.36ZM144.441 1.608H146.585V9.096H144.441V1.608ZM136.697 9.752H146.585V13.768H138.809V15.256H136.729V12.232H144.473V11.368H136.697V9.752ZM136.729 14.68H146.953V16.328H136.729V14.68ZM137.737 1.944H139.497V3.064C139.497 5.8 138.121 8.28 135.225 9.16L134.201 7.48C136.681 6.728 137.737 4.872 137.737 3.064V1.944ZM138.169 1.944H139.913V3.064C139.913 4.824 140.953 6.552 143.369 7.24L142.345 8.888C139.497 8.056 138.169 5.736 138.169 3.064V1.944ZM153.957 2.28H163.333V3.944H153.957V2.28ZM152.453 8.296H165.797V9.976H152.453V8.296ZM157.397 5.56H159.509V8.552H157.397V5.56ZM162.101 2.28H164.213V3.432C164.213 4.568 164.213 5.864 163.861 7.48L161.749 7.272C162.101 5.688 162.101 4.552 162.101 3.432V2.28ZM157.989 10.856H159.813V11.288C159.813 13.848 157.749 15.88 153.989 16.376L153.221 14.728C156.517 14.344 157.989 12.792 157.989 11.288V10.856ZM158.293 10.856H160.117V11.288C160.117 12.792 161.605 14.344 164.901 14.728L164.149 16.376C160.357 15.88 158.293 13.848 158.293 11.288V10.856Z" fill="#77ADFF"/>
<path d="M2 1V17" stroke="#77ADFF" stroke-width="3"/>
</svg>
