<svg width="166" height="19" viewBox="0 0 166 19" fill="none" xmlns="http://www.w3.org/2000/svg">
<path d="M11.316 1.624H13.46V12.424H11.316V1.624ZM3.588 14.472H13.828V16.168H3.588V14.472ZM3.588 11.384H5.716V15.352H3.588V11.384ZM4.612 2.424H6.372V3.864C6.372 6.76 5.044 9.432 2.164 10.44L1.092 8.744C3.572 7.896 4.612 5.832 4.612 3.864V2.424ZM5.044 2.424H6.788V3.864C6.788 5.8 7.796 7.704 10.228 8.488L9.14 10.184C6.34 9.24 5.044 6.728 5.044 3.864V2.424ZM15.8588 10.136H29.2828V11.816H15.8588V10.136ZM21.4588 10.984H23.5708V16.424H21.4588V10.984ZM17.3948 2.168H19.5068V3.848H25.5868V2.168H27.6988V8.728H17.3948V2.168ZM19.5068 5.512V7.032H25.5868V5.512H19.5068ZM30.5775 8.968H43.9695V10.648H30.5775V8.968ZM32.0655 11.752H42.3535V16.424H40.2255V13.416H32.0655V11.752ZM36.2095 1.656H38.3215V3.832H36.2095V1.656ZM36.0815 3.992H37.9535V4.296C37.9535 6.536 35.8095 8.12 31.7775 8.408L31.1375 6.808C34.7055 6.584 36.0815 5.432 36.0815 4.296V3.992ZM36.5775 3.992H38.4495V4.296C38.4495 5.432 39.8255 6.584 43.3935 6.808L42.7535 8.408C38.7055 8.12 36.5775 6.536 36.5775 4.296V3.992ZM31.8575 2.984H42.6895V4.632H31.8575V2.984ZM49.1818 3H56.2698V12.824H49.1818V3ZM54.1738 4.664H51.2778V11.144H54.1738V4.664ZM58.2058 1.608H60.3498V16.424H58.2058V1.608ZM59.8698 7.192H62.4938V8.952H59.8698V7.192ZM70.1565 1.88C73.4205 1.88 75.5165 2.984 75.5165 4.776C75.5165 6.568 73.4205 7.656 70.1565 7.656C66.8925 7.656 64.7965 6.568 64.7965 4.776C64.7965 2.984 66.8925 1.88 70.1565 1.88ZM70.1565 3.528C68.1245 3.528 66.9885 3.928 66.9885 4.776C66.9885 5.608 68.1245 6.024 70.1565 6.024C72.1725 6.024 73.3245 5.608 73.3245 4.776C73.3245 3.928 72.1725 3.528 70.1565 3.528ZM65.0045 11.208H75.2445V16.264H65.0045V11.208ZM73.1645 12.888H67.1005V14.584H73.1645V12.888ZM63.4525 8.504H76.8445V10.184H63.4525V8.504ZM89.5448 5.432H93.0008V7.144H89.5448V5.432ZM91.8808 1.624H94.0088V12.424H91.8808V1.624ZM84.2328 14.472H94.3448V16.168H84.2328V14.472ZM84.2328 11.512H86.3608V15.48H84.2328V11.512ZM85.0328 3.56H86.7608V4.488C86.7608 7.272 85.4488 9.848 82.6008 10.792L81.5288 9.096C83.9768 8.296 85.0328 6.36 85.0328 4.488V3.56ZM85.4808 3.56H87.1928V4.488C87.1928 6.216 88.2008 8.056 90.5368 8.84L89.4968 10.504C86.7448 9.592 85.4808 7.128 85.4808 4.488V3.56ZM82.1048 2.616H90.0728V4.296H82.1048V2.616ZM96.3115 3.832H103.4V5.528H96.3115V3.832ZM99.8795 6.184C101.768 6.184 103.128 7.64 103.128 9.72C103.128 11.784 101.768 13.24 99.8795 13.24C98.0075 13.24 96.6315 11.784 96.6315 9.72C96.6315 7.64 98.0075 6.184 99.8795 6.184ZM99.8795 7.96C99.0795 7.96 98.5195 8.6 98.5195 9.72C98.5195 10.84 99.0795 11.464 99.8795 11.464C100.68 11.464 101.256 10.84 101.256 9.72C101.256 8.6 100.68 7.96 99.8795 7.96ZM107.032 1.608H109.064V16.424H107.032V1.608ZM105.256 7.624H107.704V9.336H105.256V7.624ZM103.928 1.88H105.912V15.8H103.928V1.88ZM98.8395 2.008H100.936V4.904H98.8395V2.008ZM116.534 3.256H118.374V3.688C118.374 6.296 116.246 8.424 112.486 8.936L111.702 7.272C114.966 6.872 116.534 5.208 116.534 3.688V3.256ZM117.142 3.256H118.982V3.688C118.982 5.208 120.55 6.872 123.814 7.272L123.046 8.936C119.27 8.424 117.142 6.296 117.142 3.688V3.256ZM116.646 11H118.758V16.44H116.646V11ZM111.062 9.784H124.454V11.48H111.062V9.784ZM112.246 2.36H123.238V4.04H112.246V2.36ZM135.941 1.608H138.085V9.096H135.941V1.608ZM128.197 9.752H138.085V13.768H130.309V15.256H128.229V12.232H135.973V11.368H128.197V9.752ZM128.229 14.68H138.453V16.328H128.229V14.68ZM129.237 1.944H130.997V3.064C130.997 5.8 129.621 8.28 126.725 9.16L125.701 7.48C128.181 6.728 129.237 4.872 129.237 3.064V1.944ZM129.669 1.944H131.413V3.064C131.413 4.824 132.453 6.552 134.869 7.24L133.845 8.888C130.997 8.056 129.669 5.736 129.669 3.064V1.944ZM145.457 2.28H154.833V3.944H145.457V2.28ZM143.953 8.296H157.297V9.976H143.953V8.296ZM148.897 5.56H151.009V8.552H148.897V5.56ZM153.601 2.28H155.713V3.432C155.713 4.568 155.713 5.864 155.361 7.48L153.249 7.272C153.601 5.688 153.601 4.552 153.601 3.432V2.28ZM149.489 10.856H151.313V11.288C151.313 13.848 149.249 15.88 145.489 16.376L144.721 14.728C148.017 14.344 149.489 12.792 149.489 11.288V10.856ZM149.793 10.856H151.617V11.288C151.617 12.792 153.105 14.344 156.401 14.728L155.649 16.376C151.857 15.88 149.793 13.848 149.793 11.288V10.856Z" fill="#E6617A"/>
<path d="M164 2V18" stroke="#E6617A" stroke-width="3"/>
</svg>
