<svg width="288" height="16" viewBox="0 0 288 16" fill="none" xmlns="http://www.w3.org/2000/svg">
  <path d="M10.9518 0.591999H13.0798V15.456H10.9518V0.591999ZM8.35981 5.776H11.4478V7.488H8.35981V5.776ZM4.07181 2.944H5.75181V4.256C5.75181 7.872 4.43981 11.328 1.67181 12.688L0.423813 11.008C2.90381 9.84 4.07181 7.008 4.07181 4.256V2.944ZM4.56781 2.944H6.23181V4.256C6.23181 6.864 7.38381 9.6 9.86381 10.72L8.63181 12.384C5.84781 11.072 4.56781 7.76 4.56781 4.256V2.944ZM1.03181 2.032H9.27181V3.744H1.03181V2.032ZM25.6066 0.608H27.7346V15.424H25.6066V0.608ZM15.7026 12.896L15.4466 11.152C18.1506 11.152 21.7186 11.184 24.8386 10.752L24.9826 12.304C21.7186 12.896 18.3426 12.912 15.7026 12.896ZM15.7346 2.384H24.6466V4.064H15.7346V2.384ZM20.1826 4.624C22.3426 4.624 23.8466 5.76 23.8466 7.456C23.8466 9.12 22.3426 10.256 20.1826 10.256C18.0546 10.256 16.5506 9.12 16.5506 7.456C16.5506 5.76 18.0546 4.624 20.1826 4.624ZM20.1826 6.256C19.2226 6.256 18.5666 6.672 18.5666 7.456C18.5666 8.224 19.2226 8.656 20.1826 8.656C21.1586 8.656 21.8146 8.224 21.8146 7.456C21.8146 6.672 21.1586 6.256 20.1826 6.256ZM19.1106 0.768H21.2546V3.504H19.1106V0.768ZM34.8533 1.584C37.1893 1.584 38.9333 3.104 38.9333 5.232C38.9333 7.376 37.1893 8.896 34.8533 8.896C32.5333 8.896 30.7573 7.376 30.7573 5.232C30.7573 3.104 32.5333 1.584 34.8533 1.584ZM34.8533 3.408C33.7173 3.408 32.8533 4.08 32.8533 5.232C32.8533 6.4 33.7173 7.072 34.8533 7.072C35.9893 7.072 36.8533 6.4 36.8533 5.232C36.8533 4.08 35.9893 3.408 34.8533 3.408ZM40.3253 0.591999H42.4533V15.456H40.3253V0.591999ZM30.4053 12.448L30.1493 10.736C32.7573 10.736 36.3893 10.704 39.5093 10.24L39.6693 11.776C36.4533 12.416 32.9653 12.448 30.4053 12.448ZM52.2096 1.632C54.4656 1.632 56.0976 3.68 56.0976 6.912C56.0976 10.176 54.4656 12.224 52.2096 12.224C49.9536 12.224 48.3216 10.176 48.3216 6.912C48.3216 3.68 49.9536 1.632 52.2096 1.632ZM52.2096 3.568C51.1056 3.568 50.3696 4.736 50.3696 6.912C50.3696 9.12 51.1056 10.304 52.2096 10.304C53.3136 10.304 54.0656 9.12 54.0656 6.912C54.0656 4.736 53.3136 3.568 52.2096 3.568ZM57.7136 0.608H59.8576V15.424H57.7136V0.608ZM59.3776 6.192H62.0016V7.952H59.3776V6.192ZM62.9603 8.08H76.3843V9.76H62.9603V8.08ZM64.6083 0.879999H74.7523V4.848H66.7363V6.464H64.6243V3.344H72.6563V2.496H64.6083V0.879999ZM64.6243 5.68H75.0403V7.296H64.6243V5.68ZM64.6563 10.656H74.8323V15.264H64.6563V10.656ZM72.7363 12.32H66.7363V13.584H72.7363V12.32ZM87.1511 0.591999H89.2951V15.456H87.1511V0.591999ZM88.8151 6.08H91.4391V7.824H88.8151V6.08ZM78.2551 10.128H79.5031C81.9991 10.128 83.9671 10.048 86.1431 9.664L86.3511 11.424C84.1111 11.824 82.0791 11.888 79.5031 11.888H78.2551V10.128ZM78.2551 1.968H85.1671V3.68H80.3671V10.976H78.2551V1.968ZM92.3978 7.808H105.822V9.488H92.3978V7.808ZM98.1418 8.912H100.302V12.032H98.1418V8.912ZM93.9658 13.456H104.35V15.168H93.9658V13.456ZM93.9658 10.736H96.1098V13.888H93.9658V10.736ZM99.1018 0.879999C102.286 0.879999 104.43 2.08 104.43 3.952C104.43 5.84 102.286 7.024 99.1018 7.024C95.9018 7.024 93.7738 5.84 93.7738 3.952C93.7738 2.08 95.9018 0.879999 99.1018 0.879999ZM99.1018 2.56C97.2298 2.56 96.0618 3.04 96.0618 3.952C96.0618 4.864 97.2298 5.328 99.1018 5.328C100.974 5.328 102.142 4.864 102.142 3.952C102.142 3.04 100.974 2.56 99.1018 2.56ZM120.826 0.608H122.954V8.048H120.826V0.608ZM115.882 1.168H118.202C118.202 5.104 115.93 7.408 111.434 8.384L110.73 6.672C114.442 5.936 115.882 4.304 115.882 2.32V1.168ZM111.578 1.168H116.778V2.864H111.578V1.168ZM117.626 2.448H121.098V4.064H117.626V2.448ZM117.53 5.328H121.018V6.928H117.53V5.328ZM113.162 8.592H122.954V12.672H115.322V14.512H113.194V11.104H120.826V10.256H113.162V8.592ZM113.194 13.616H123.258V15.28H113.194V13.616ZM125.273 9.152H138.665V10.8H125.273V9.152ZM130.905 7.744H133.033V9.824H130.905V7.744ZM126.889 13.52H137.161V15.168H126.889V13.52ZM126.889 11.504H129.017V14.56H126.889V11.504ZM125.913 1.808H137.977V3.408H125.913V1.808ZM131.977 3.824C135.129 3.824 136.937 4.608 136.937 6.08C136.937 7.552 135.129 8.352 131.977 8.352C128.825 8.352 127.017 7.552 127.017 6.08C127.017 4.608 128.825 3.824 131.977 3.824ZM131.977 5.312C130.041 5.312 129.193 5.536 129.193 6.08C129.193 6.624 130.041 6.848 131.977 6.848C133.897 6.848 134.761 6.624 134.761 6.08C134.761 5.536 133.897 5.312 131.977 5.312ZM130.905 0.544H133.033V2.832H130.905V0.544ZM149.317 3.872H151.781V5.584H149.317V3.872ZM149.317 8.448H151.781V10.176H149.317V8.448ZM154.133 0.608H156.165V15.424H154.133V0.608ZM151.173 0.832H153.157V14.752H151.173V0.832ZM146.757 1.648C148.725 1.648 149.989 3.68 149.989 7.024C149.989 10.384 148.725 12.416 146.757 12.416C144.805 12.416 143.557 10.384 143.557 7.024C143.557 3.68 144.805 1.648 146.757 1.648ZM146.757 3.648C145.941 3.648 145.461 4.768 145.461 7.024C145.461 9.296 145.941 10.4 146.757 10.4C147.589 10.4 148.069 9.296 148.069 7.024C148.069 4.768 147.589 3.648 146.757 3.648ZM158.564 1.92H160.564V5.248H162.452V1.92H164.42V11.92H158.564V1.92ZM160.564 6.912V10.224H162.452V6.912H160.564ZM168.852 0.608H170.884V15.424H168.852V0.608ZM167.028 6.256H169.492V7.968H167.028V6.256ZM165.604 0.832H167.604V14.752H165.604V0.832ZM178.787 6.064H181.219V7.776H178.787V6.064ZM183.571 0.608H185.603V15.424H183.571V0.608ZM180.547 0.832H182.547V14.752H180.547V0.832ZM176.195 1.648C178.163 1.648 179.427 3.68 179.427 7.024C179.427 10.384 178.163 12.416 176.195 12.416C174.243 12.416 172.995 10.384 172.995 7.024C172.995 3.68 174.243 1.648 176.195 1.648ZM176.195 3.648C175.395 3.648 174.931 4.768 174.931 7.024C174.931 9.296 175.395 10.4 176.195 10.4C177.027 10.4 177.491 9.296 177.491 7.024C177.491 4.768 177.027 3.648 176.195 3.648ZM194.351 3.088H196.063V3.632C196.063 6.176 194.735 8.416 191.903 9.2L190.911 7.552C193.311 6.896 194.351 5.264 194.351 3.632V3.088ZM194.751 3.088H196.479V3.632C196.479 5.136 197.503 6.672 199.887 7.296L198.927 8.96C196.079 8.208 194.751 6.048 194.751 3.632V3.088ZM191.439 2.08H199.391V3.744H191.439V2.08ZM194.351 0.559999H196.479V2.8H194.351V0.559999ZM200.559 0.608H202.687V9.28H200.559V0.608ZM202.095 4.064H204.655V5.808H202.095V4.064ZM193.055 9.904H202.687V15.264H193.055V9.904ZM200.607 11.568H195.151V13.584H200.607V11.568ZM213.31 3.36H216.318V5.088H213.31V3.36ZM209.134 1.376H210.878V2.768C210.878 5.696 209.582 8.24 206.766 9.216L205.646 7.536C208.126 6.72 209.134 4.768 209.134 2.768V1.376ZM209.566 1.376H211.278V2.896C211.278 4.736 212.27 6.544 214.59 7.296L213.486 8.96C210.798 8.032 209.566 5.632 209.566 2.896V1.376ZM208.046 10.096H218.142V15.424H216.014V11.776H208.046V10.096ZM216.014 0.608H218.142V9.424H216.014V0.608ZM229.964 0.608H232.076V15.424H229.964V0.608ZM231.596 6.384H234.22V8.16H231.596V6.384ZM220.396 2.8H229.02V4.496H220.396V2.8ZM224.732 5.328C226.892 5.328 228.492 6.8 228.492 8.864C228.492 10.928 226.892 12.4 224.732 12.4C222.572 12.4 220.972 10.928 220.972 8.864C220.972 6.8 222.572 5.328 224.732 5.328ZM224.732 7.056C223.724 7.056 223.004 7.728 223.004 8.864C223.004 10 223.724 10.672 224.732 10.672C225.74 10.672 226.46 10 226.46 8.864C226.46 7.728 225.74 7.056 224.732 7.056ZM223.66 0.848H225.788V3.44H223.66V0.848ZM238.795 1.744H240.523V3.904C240.523 7.712 239.211 11.152 236.267 12.512L235.003 10.752C237.579 9.632 238.795 6.784 238.795 3.904V1.744ZM239.211 1.744H240.939V3.904C240.939 6.64 242.107 9.36 244.635 10.448L243.387 12.16C240.523 10.848 239.211 7.552 239.211 3.904V1.744ZM245.339 0.591999H247.483V15.456H245.339V0.591999ZM260.954 6.208H263.562V7.952H260.954V6.208ZM259.37 0.591999H261.514V15.408H259.37V0.591999ZM250.346 2.016H252.474V11.216H250.346V2.016ZM250.346 10.032H251.626C253.738 10.032 256.026 9.888 258.41 9.408L258.634 11.152C256.186 11.664 253.802 11.792 251.626 11.792H250.346V10.032ZM267.577 8.128H269.689V12.288H267.577V8.128ZM272.953 8.128H275.081V12.288H272.953V8.128ZM264.633 11.984H278.041V13.712H264.633V11.984ZM271.321 1.328C274.505 1.328 276.857 2.896 276.857 5.312C276.857 7.728 274.505 9.28 271.321 9.28C268.121 9.28 265.785 7.728 265.785 5.312C265.785 2.896 268.121 1.328 271.321 1.328ZM271.321 2.992C269.257 2.992 267.881 3.84 267.881 5.312C267.881 6.768 269.257 7.632 271.321 7.632C273.385 7.632 274.761 6.768 274.761 5.312C274.761 3.84 273.385 2.992 271.321 2.992ZM281.763 10.4375V10.2045C281.763 9.56061 281.817 9.04735 281.923 8.66477C282.032 8.2822 282.192 7.97538 282.4 7.74432C282.608 7.50947 282.862 7.29545 283.161 7.10227C283.4 6.95076 283.612 6.79735 283.798 6.64205C283.987 6.48295 284.137 6.3125 284.246 6.13068C284.356 5.94886 284.411 5.74242 284.411 5.51136C284.411 5.28788 284.358 5.09091 284.252 4.92045C284.146 4.75 284 4.61932 283.815 4.52841C283.633 4.43371 283.43 4.38636 283.207 4.38636C282.983 4.38636 282.773 4.4375 282.576 4.53977C282.383 4.64205 282.224 4.78788 282.099 4.97727C281.978 5.16288 281.915 5.38826 281.911 5.65341H279.298C279.309 4.85795 279.493 4.20644 279.849 3.69886C280.209 3.19129 280.684 2.81629 281.275 2.57386C281.866 2.32765 282.517 2.20455 283.229 2.20455C284.01 2.20455 284.703 2.32576 285.309 2.56818C285.919 2.81061 286.398 3.16856 286.746 3.64205C287.095 4.11553 287.269 4.69508 287.269 5.38068C287.269 5.83144 287.193 6.22917 287.042 6.57386C286.89 6.91856 286.678 7.22348 286.406 7.48864C286.137 7.75 285.82 7.98864 285.457 8.20455C285.173 8.37121 284.936 8.54545 284.746 8.72727C284.561 8.90909 284.421 9.11742 284.326 9.35227C284.231 9.58333 284.184 9.86742 284.184 10.2045V10.4375H281.763ZM283.019 14.1648C282.61 14.1648 282.26 14.0208 281.968 13.733C281.68 13.4451 281.538 13.0966 281.542 12.6875C281.538 12.286 281.68 11.9432 281.968 11.6591C282.26 11.3712 282.61 11.2273 283.019 11.2273C283.409 11.2273 283.752 11.3712 284.048 11.6591C284.343 11.9432 284.493 12.286 284.496 12.6875C284.493 12.9602 284.421 13.2083 284.281 13.4318C284.144 13.6553 283.964 13.8333 283.741 13.9659C283.521 14.0985 283.281 14.1648 283.019 14.1648Z" fill="#E6617A"/>
</svg>