<svg width="165" height="19" viewBox="0 0 165 19" fill="none" xmlns="http://www.w3.org/2000/svg">
<path d="M18.316 1.624H20.46V12.424H18.316V1.624ZM10.588 14.472H20.828V16.168H10.588V14.472ZM10.588 11.384H12.716V15.352H10.588V11.384ZM11.612 2.424H13.372V3.864C13.372 6.76 12.044 9.432 9.164 10.44L8.092 8.744C10.572 7.896 11.612 5.832 11.612 3.864V2.424ZM12.044 2.424H13.788V3.864C13.788 5.8 14.796 7.704 17.228 8.488L16.14 10.184C13.34 9.24 12.044 6.728 12.044 3.864V2.424ZM22.8588 10.136H36.2828V11.816H22.8588V10.136ZM28.4588 10.984H30.5708V16.424H28.4588V10.984ZM24.3948 2.168H26.5068V3.848H32.5868V2.168H34.6988V8.728H24.3948V2.168ZM26.5068 5.512V7.032H32.5868V5.512H26.5068ZM37.5775 8.968H50.9695V10.648H37.5775V8.968ZM39.0655 11.752H49.3535V16.424H47.2255V13.416H39.0655V11.752ZM43.2095 1.656H45.3215V3.832H43.2095V1.656ZM43.0815 3.992H44.9535V4.296C44.9535 6.536 42.8095 8.12 38.7775 8.408L38.1375 6.808C41.7055 6.584 43.0815 5.432 43.0815 4.296V3.992ZM43.5775 3.992H45.4495V4.296C45.4495 5.432 46.8255 6.584 50.3935 6.808L49.7535 8.408C45.7055 8.12 43.5775 6.536 43.5775 4.296V3.992ZM38.8575 2.984H49.6895V4.632H38.8575V2.984ZM56.1818 3H63.2698V12.824H56.1818V3ZM61.1738 4.664H58.2778V11.144H61.1738V4.664ZM65.2058 1.608H67.3498V16.424H65.2058V1.608ZM66.8698 7.192H69.4938V8.952H66.8698V7.192ZM77.1565 1.88C80.4205 1.88 82.5165 2.984 82.5165 4.776C82.5165 6.568 80.4205 7.656 77.1565 7.656C73.8925 7.656 71.7965 6.568 71.7965 4.776C71.7965 2.984 73.8925 1.88 77.1565 1.88ZM77.1565 3.528C75.1245 3.528 73.9885 3.928 73.9885 4.776C73.9885 5.608 75.1245 6.024 77.1565 6.024C79.1725 6.024 80.3245 5.608 80.3245 4.776C80.3245 3.928 79.1725 3.528 77.1565 3.528ZM72.0045 11.208H82.2445V16.264H72.0045V11.208ZM80.1645 12.888H74.1005V14.584H80.1645V12.888ZM70.4525 8.504H83.8445V10.184H70.4525V8.504ZM96.5448 5.432H100.001V7.144H96.5448V5.432ZM98.8808 1.624H101.009V12.424H98.8808V1.624ZM91.2328 14.472H101.345V16.168H91.2328V14.472ZM91.2328 11.512H93.3608V15.48H91.2328V11.512ZM92.0328 3.56H93.7608V4.488C93.7608 7.272 92.4488 9.848 89.6008 10.792L88.5288 9.096C90.9768 8.296 92.0328 6.36 92.0328 4.488V3.56ZM92.4808 3.56H94.1928V4.488C94.1928 6.216 95.2008 8.056 97.5368 8.84L96.4968 10.504C93.7448 9.592 92.4808 7.128 92.4808 4.488V3.56ZM89.1048 2.616H97.0728V4.296H89.1048V2.616ZM103.312 3.832H110.4V5.528H103.312V3.832ZM106.88 6.184C108.768 6.184 110.128 7.64 110.128 9.72C110.128 11.784 108.768 13.24 106.88 13.24C105.008 13.24 103.632 11.784 103.632 9.72C103.632 7.64 105.008 6.184 106.88 6.184ZM106.88 7.96C106.08 7.96 105.52 8.6 105.52 9.72C105.52 10.84 106.08 11.464 106.88 11.464C107.68 11.464 108.256 10.84 108.256 9.72C108.256 8.6 107.68 7.96 106.88 7.96ZM114.032 1.608H116.064V16.424H114.032V1.608ZM112.256 7.624H114.704V9.336H112.256V7.624ZM110.928 1.88H112.912V15.8H110.928V1.88ZM105.84 2.008H107.936V4.904H105.84V2.008ZM123.534 3.256H125.374V3.688C125.374 6.296 123.246 8.424 119.486 8.936L118.702 7.272C121.966 6.872 123.534 5.208 123.534 3.688V3.256ZM124.142 3.256H125.982V3.688C125.982 5.208 127.55 6.872 130.814 7.272L130.046 8.936C126.27 8.424 124.142 6.296 124.142 3.688V3.256ZM123.646 11H125.758V16.44H123.646V11ZM118.062 9.784H131.454V11.48H118.062V9.784ZM119.246 2.36H130.238V4.04H119.246V2.36ZM142.941 1.608H145.085V9.096H142.941V1.608ZM135.197 9.752H145.085V13.768H137.309V15.256H135.229V12.232H142.973V11.368H135.197V9.752ZM135.229 14.68H145.453V16.328H135.229V14.68ZM136.237 1.944H137.997V3.064C137.997 5.8 136.621 8.28 133.725 9.16L132.701 7.48C135.181 6.728 136.237 4.872 136.237 3.064V1.944ZM136.669 1.944H138.413V3.064C138.413 4.824 139.453 6.552 141.869 7.24L140.845 8.888C137.997 8.056 136.669 5.736 136.669 3.064V1.944ZM152.457 2.28H161.833V3.944H152.457V2.28ZM150.953 8.296H164.297V9.976H150.953V8.296ZM155.897 5.56H158.009V8.552H155.897V5.56ZM160.601 2.28H162.713V3.432C162.713 4.568 162.713 5.864 162.361 7.48L160.249 7.272C160.601 5.688 160.601 4.552 160.601 3.432V2.28ZM156.489 10.856H158.313V11.288C158.313 13.848 156.249 15.88 152.489 16.376L151.721 14.728C155.017 14.344 156.489 12.792 156.489 11.288V10.856ZM156.793 10.856H158.617V11.288C158.617 12.792 160.105 14.344 163.401 14.728L162.649 16.376C158.857 15.88 156.793 13.848 156.793 11.288V10.856Z" fill="#E6617A"/>
<path d="M2 1V17" stroke="#E6617A" stroke-width="3"/>
</svg>
