<svg width="165" height="19" viewBox="0 0 165 19" fill="none" xmlns="http://www.w3.org/2000/svg">
<path d="M10.816 1.624H12.96V12.424H10.816V1.624ZM3.088 14.472H13.328V16.168H3.088V14.472ZM3.088 11.384H5.216V15.352H3.088V11.384ZM4.112 2.424H5.872V3.864C5.872 6.76 4.544 9.432 1.664 10.44L0.592 8.744C3.072 7.896 4.112 5.832 4.112 3.864V2.424ZM4.544 2.424H6.288V3.864C6.288 5.8 7.296 7.704 9.728 8.488L8.64 10.184C5.84 9.24 4.544 6.728 4.544 3.864V2.424ZM24.8948 1.608H27.0228V10.488H24.8948V1.608ZM26.4148 5.048H28.9908V6.792H26.4148V5.048ZM15.8868 8.2H17.1348C20.0468 8.2 21.8388 8.136 23.8868 7.752L24.0788 9.448C21.9988 9.848 20.1268 9.928 17.1348 9.928H15.8868V8.2ZM15.8708 2.488H22.6388V6.936H17.9988V9.24H15.8868V5.352H20.5428V4.168H15.8708V2.488ZM22.1588 10.792C25.2468 10.792 27.1668 11.848 27.1668 13.624C27.1668 15.4 25.2468 16.424 22.1588 16.424C19.0708 16.424 17.1348 15.4 17.1348 13.624C17.1348 11.848 19.0708 10.792 22.1588 10.792ZM22.1588 12.424C20.2388 12.424 19.2308 12.808 19.2308 13.624C19.2308 14.44 20.2388 14.824 22.1588 14.824C24.0788 14.824 25.0868 14.44 25.0868 13.624C25.0868 12.808 24.0788 12.424 22.1588 12.424ZM30.0775 8.968H43.4695V10.648H30.0775V8.968ZM31.5655 11.752H41.8535V16.424H39.7255V13.416H31.5655V11.752ZM35.7095 1.656H37.8215V3.832H35.7095V1.656ZM35.5815 3.992H37.4535V4.296C37.4535 6.536 35.3095 8.12 31.2775 8.408L30.6375 6.808C34.2055 6.584 35.5815 5.432 35.5815 4.296V3.992ZM36.0775 3.992H37.9495V4.296C37.9495 5.432 39.3255 6.584 42.8935 6.808L42.2535 8.408C38.2055 8.12 36.0775 6.536 36.0775 4.296V3.992ZM31.3575 2.984H42.1895V4.632H31.3575V2.984ZM48.6818 3H55.7698V12.824H48.6818V3ZM53.6738 4.664H50.7778V11.144H53.6738V4.664ZM57.7058 1.608H59.8498V16.424H57.7058V1.608ZM59.3698 7.192H61.9938V8.952H59.3698V7.192ZM69.6565 1.88C72.9205 1.88 75.0165 2.984 75.0165 4.776C75.0165 6.568 72.9205 7.656 69.6565 7.656C66.3925 7.656 64.2965 6.568 64.2965 4.776C64.2965 2.984 66.3925 1.88 69.6565 1.88ZM69.6565 3.528C67.6245 3.528 66.4885 3.928 66.4885 4.776C66.4885 5.608 67.6245 6.024 69.6565 6.024C71.6725 6.024 72.8245 5.608 72.8245 4.776C72.8245 3.928 71.6725 3.528 69.6565 3.528ZM64.5045 11.208H74.7445V16.264H64.5045V11.208ZM72.6645 12.888H66.6005V14.584H72.6645V12.888ZM62.9525 8.504H76.3445V10.184H62.9525V8.504ZM89.0448 5.432H92.5008V7.144H89.0448V5.432ZM91.3808 1.624H93.5088V12.424H91.3808V1.624ZM83.7328 14.472H93.8448V16.168H83.7328V14.472ZM83.7328 11.512H85.8608V15.48H83.7328V11.512ZM84.5328 3.56H86.2608V4.488C86.2608 7.272 84.9488 9.848 82.1008 10.792L81.0288 9.096C83.4768 8.296 84.5328 6.36 84.5328 4.488V3.56ZM84.9808 3.56H86.6928V4.488C86.6928 6.216 87.7008 8.056 90.0368 8.84L88.9968 10.504C86.2448 9.592 84.9808 7.128 84.9808 4.488V3.56ZM81.6048 2.616H89.5728V4.296H81.6048V2.616ZM95.8115 3.832H102.9V5.528H95.8115V3.832ZM99.3795 6.184C101.268 6.184 102.628 7.64 102.628 9.72C102.628 11.784 101.268 13.24 99.3795 13.24C97.5075 13.24 96.1315 11.784 96.1315 9.72C96.1315 7.64 97.5075 6.184 99.3795 6.184ZM99.3795 7.96C98.5795 7.96 98.0195 8.6 98.0195 9.72C98.0195 10.84 98.5795 11.464 99.3795 11.464C100.18 11.464 100.756 10.84 100.756 9.72C100.756 8.6 100.18 7.96 99.3795 7.96ZM106.532 1.608H108.564V16.424H106.532V1.608ZM104.756 7.624H107.204V9.336H104.756V7.624ZM103.428 1.88H105.412V15.8H103.428V1.88ZM98.3395 2.008H100.436V4.904H98.3395V2.008ZM116.034 3.256H117.874V3.688C117.874 6.296 115.746 8.424 111.986 8.936L111.202 7.272C114.466 6.872 116.034 5.208 116.034 3.688V3.256ZM116.642 3.256H118.482V3.688C118.482 5.208 120.05 6.872 123.314 7.272L122.546 8.936C118.77 8.424 116.642 6.296 116.642 3.688V3.256ZM116.146 11H118.258V16.44H116.146V11ZM110.562 9.784H123.954V11.48H110.562V9.784ZM111.746 2.36H122.738V4.04H111.746V2.36ZM135.441 1.608H137.585V9.096H135.441V1.608ZM127.697 9.752H137.585V13.768H129.809V15.256H127.729V12.232H135.473V11.368H127.697V9.752ZM127.729 14.68H137.953V16.328H127.729V14.68ZM128.737 1.944H130.497V3.064C130.497 5.8 129.121 8.28 126.225 9.16L125.201 7.48C127.681 6.728 128.737 4.872 128.737 3.064V1.944ZM129.169 1.944H130.913V3.064C130.913 4.824 131.953 6.552 134.369 7.24L133.345 8.888C130.497 8.056 129.169 5.736 129.169 3.064V1.944ZM144.957 2.28H154.333V3.944H144.957V2.28ZM143.453 8.296H156.797V9.976H143.453V8.296ZM148.397 5.56H150.509V8.552H148.397V5.56ZM153.101 2.28H155.213V3.432C155.213 4.568 155.213 5.864 154.861 7.48L152.749 7.272C153.101 5.688 153.101 4.552 153.101 3.432V2.28ZM148.989 10.856H150.813V11.288C150.813 13.848 148.749 15.88 144.989 16.376L144.221 14.728C147.517 14.344 148.989 12.792 148.989 11.288V10.856ZM149.293 10.856H151.117V11.288C151.117 12.792 152.605 14.344 155.901 14.728L155.149 16.376C151.357 15.88 149.293 13.848 149.293 11.288V10.856Z" fill="#77ADFF"/>
<path d="M163 1V17" stroke="#77ADFF" stroke-width="3"/>
</svg>
