<svg width="217" height="13" viewBox="0 0 217 13" fill="none" xmlns="http://www.w3.org/2000/svg">
<path d="M8.208 0.943999H9.804V12.092H8.208V0.943999ZM6.264 4.832H8.58V6.116H6.264V4.832ZM3.048 2.708H4.308V3.692C4.308 6.404 3.324 8.996 1.248 10.016L0.312 8.756C2.172 7.88 3.048 5.756 3.048 3.692V2.708ZM3.42 2.708H4.668V3.692C4.668 5.648 5.532 7.7 7.392 8.54L6.468 9.788C4.38 8.804 3.42 6.32 3.42 3.692V2.708ZM0.768 2.024H6.948V3.308H0.768V2.024ZM19.1991 0.956H20.7951V12.068H19.1991V0.956ZM11.7711 10.172L11.5791 8.864C13.6071 8.864 16.2831 8.888 18.6231 8.564L18.7311 9.728C16.2831 10.172 13.7511 10.184 11.7711 10.172ZM11.7951 2.288H18.4791V3.548H11.7951V2.288ZM15.1311 3.968C16.7511 3.968 17.8791 4.82 17.8791 6.092C17.8791 7.34 16.7511 8.192 15.1311 8.192C13.5351 8.192 12.4071 7.34 12.4071 6.092C12.4071 4.82 13.5351 3.968 15.1311 3.968ZM15.1311 5.192C14.4111 5.192 13.9191 5.504 13.9191 6.092C13.9191 6.668 14.4111 6.992 15.1311 6.992C15.8631 6.992 16.3551 6.668 16.3551 6.092C16.3551 5.504 15.8631 5.192 15.1311 5.192ZM14.3271 1.076H15.9351V3.128H14.3271V1.076ZM26.1341 1.688C27.8861 1.688 29.1941 2.828 29.1941 4.424C29.1941 6.032 27.8861 7.172 26.1341 7.172C24.3941 7.172 23.0621 6.032 23.0621 4.424C23.0621 2.828 24.3941 1.688 26.1341 1.688ZM26.1341 3.056C25.2821 3.056 24.6341 3.56 24.6341 4.424C24.6341 5.3 25.2821 5.804 26.1341 5.804C26.9861 5.804 27.6341 5.3 27.6341 4.424C27.6341 3.56 26.9861 3.056 26.1341 3.056ZM30.2381 0.943999H31.8341V12.092H30.2381V0.943999ZM22.7981 9.836L22.6061 8.552C24.5621 8.552 27.2861 8.528 29.6261 8.18L29.7461 9.332C27.3341 9.812 24.7181 9.836 22.7981 9.836ZM39.3505 1.724C41.0425 1.724 42.2665 3.26 42.2665 5.684C42.2665 8.132 41.0425 9.668 39.3505 9.668C37.6585 9.668 36.4345 8.132 36.4345 5.684C36.4345 3.26 37.6585 1.724 39.3505 1.724ZM39.3505 3.176C38.5225 3.176 37.9705 4.052 37.9705 5.684C37.9705 7.34 38.5225 8.228 39.3505 8.228C40.1785 8.228 40.7425 7.34 40.7425 5.684C40.7425 4.052 40.1785 3.176 39.3505 3.176ZM43.4785 0.956H45.0865V12.068H43.4785V0.956ZM44.7265 5.144H46.6945V6.464H44.7265V5.144ZM47.4136 6.56H57.4816V7.82H47.4136V6.56ZM48.6496 1.16H56.2576V4.136H50.2456V5.348H48.6616V3.008H54.6856V2.372H48.6496V1.16ZM48.6616 4.76H56.4736V5.972H48.6616V4.76ZM48.6856 8.492H56.3176V11.948H48.6856V8.492ZM54.7456 9.74H50.2456V10.688H54.7456V9.74ZM65.5567 0.943999H67.1647V12.092H65.5567V0.943999ZM66.8047 5.06H68.7727V6.368H66.8047V5.06ZM58.8847 8.096H59.8207C61.6927 8.096 63.1687 8.036 64.8007 7.748L64.9567 9.068C63.2767 9.368 61.7527 9.416 59.8207 9.416H58.8847V8.096ZM58.8847 1.976H64.0687V3.26H60.4687V8.732H58.8847V1.976ZM69.4917 6.356H79.5597V7.616H69.4917V6.356ZM73.7997 7.184H75.4197V9.524H73.7997V7.184ZM70.6677 10.592H78.4557V11.876H70.6677V10.592ZM70.6677 8.552H72.2757V10.916H70.6677V8.552ZM74.5197 1.16C76.9077 1.16 78.5157 2.06 78.5157 3.464C78.5157 4.88 76.9077 5.768 74.5197 5.768C72.1197 5.768 70.5237 4.88 70.5237 3.464C70.5237 2.06 72.1197 1.16 74.5197 1.16ZM74.5197 2.42C73.1157 2.42 72.2397 2.78 72.2397 3.464C72.2397 4.148 73.1157 4.496 74.5197 4.496C75.9237 4.496 76.7997 4.148 76.7997 3.464C76.7997 2.78 75.9237 2.42 74.5197 2.42ZM91.0121 0.956H92.6081V6.536H91.0121V0.956ZM87.3041 1.376H89.0441C89.0441 4.328 87.3401 6.056 83.9681 6.788L83.4401 5.504C86.2241 4.952 87.3041 3.728 87.3041 2.24V1.376ZM84.0761 1.376H87.9761V2.648H84.0761V1.376ZM88.6121 2.336H91.2161V3.548H88.6121V2.336ZM88.5401 4.496H91.1561V5.696H88.5401V4.496ZM85.2641 6.944H92.6081V10.004H86.8841V11.384H85.2881V8.828H91.0121V8.192H85.2641V6.944ZM85.2881 10.712H92.8361V11.96H85.2881V10.712ZM94.3472 7.364H104.391V8.6H94.3472V7.364ZM98.5712 6.308H100.167V7.868H98.5712V6.308ZM95.5592 10.64H103.263V11.876H95.5592V10.64ZM95.5592 9.128H97.1552V11.42H95.5592V9.128ZM94.8272 1.856H103.875V3.056H94.8272V1.856ZM99.3752 3.368C101.739 3.368 103.095 3.956 103.095 5.06C103.095 6.164 101.739 6.764 99.3752 6.764C97.0112 6.764 95.6552 6.164 95.6552 5.06C95.6552 3.956 97.0112 3.368 99.3752 3.368ZM99.3752 4.484C97.9232 4.484 97.2872 4.652 97.2872 5.06C97.2872 5.468 97.9232 5.636 99.3752 5.636C100.815 5.636 101.463 5.468 101.463 5.06C101.463 4.652 100.815 4.484 99.3752 4.484ZM98.5712 0.908H100.167V2.624H98.5712V0.908ZM112.58 3.404H114.428V4.688H112.58V3.404ZM112.58 6.836H114.428V8.132H112.58V6.836ZM116.192 0.956H117.716V12.068H116.192V0.956ZM113.972 1.124H115.46V11.564H113.972V1.124ZM110.66 1.736C112.136 1.736 113.084 3.26 113.084 5.768C113.084 8.288 112.136 9.812 110.66 9.812C109.196 9.812 108.26 8.288 108.26 5.768C108.26 3.26 109.196 1.736 110.66 1.736ZM110.66 3.236C110.048 3.236 109.688 4.076 109.688 5.768C109.688 7.472 110.048 8.3 110.66 8.3C111.284 8.3 111.644 7.472 111.644 5.768C111.644 4.076 111.284 3.236 110.66 3.236ZM119.515 1.94H121.015V4.436H122.431V1.94H123.907V9.44H119.515V1.94ZM121.015 5.684V8.168H122.431V5.684H121.015ZM127.231 0.956H128.755V12.068H127.231V0.956ZM125.863 5.192H127.711V6.476H125.863V5.192ZM124.795 1.124H126.295V11.564H124.795V1.124ZM134.682 5.048H136.506V6.332H134.682V5.048ZM138.27 0.956H139.794V12.068H138.27V0.956ZM136.002 1.124H137.502V11.564H136.002V1.124ZM132.738 1.736C134.214 1.736 135.162 3.26 135.162 5.768C135.162 8.288 134.214 9.812 132.738 9.812C131.274 9.812 130.338 8.288 130.338 5.768C130.338 3.26 131.274 1.736 132.738 1.736ZM132.738 3.236C132.138 3.236 131.79 4.076 131.79 5.768C131.79 7.472 132.138 8.3 132.738 8.3C133.362 8.3 133.71 7.472 133.71 5.768C133.71 4.076 133.362 3.236 132.738 3.236ZM146.554 2.816H147.838V3.224C147.838 5.132 146.842 6.812 144.718 7.4L143.974 6.164C145.774 5.672 146.554 4.448 146.554 3.224V2.816ZM146.854 2.816H148.15V3.224C148.15 4.352 148.918 5.504 150.706 5.972L149.986 7.22C147.85 6.656 146.854 5.036 146.854 3.224V2.816ZM144.37 2.06H150.334V3.308H144.37V2.06ZM146.554 0.92H148.15V2.6H146.554V0.92ZM151.21 0.956H152.806V7.46H151.21V0.956ZM152.362 3.548H154.282V4.856H152.362V3.548ZM145.582 7.928H152.806V11.948H145.582V7.928ZM151.246 9.176H147.154V10.688H151.246V9.176ZM160.773 3.02H163.029V4.316H160.773V3.02ZM157.641 1.532H158.949V2.576C158.949 4.772 157.977 6.68 155.865 7.412L155.025 6.152C156.885 5.54 157.641 4.076 157.641 2.576V1.532ZM157.965 1.532H159.249V2.672C159.249 4.052 159.993 5.408 161.733 5.972L160.905 7.22C158.889 6.524 157.965 4.724 157.965 2.672V1.532ZM156.825 8.072H164.397V12.068H162.801V9.332H156.825V8.072ZM162.801 0.956H164.397V7.568H162.801V0.956ZM173.264 0.956H174.848V12.068H173.264V0.956ZM174.488 5.288H176.456V6.62H174.488V5.288ZM166.088 2.6H172.556V3.872H166.088V2.6ZM169.34 4.496C170.96 4.496 172.16 5.6 172.16 7.148C172.16 8.696 170.96 9.8 169.34 9.8C167.72 9.8 166.52 8.696 166.52 7.148C166.52 5.6 167.72 4.496 169.34 4.496ZM169.34 5.792C168.584 5.792 168.044 6.296 168.044 7.148C168.044 8 168.584 8.504 169.34 8.504C170.096 8.504 170.636 8 170.636 7.148C170.636 6.296 170.096 5.792 169.34 5.792ZM168.536 1.136H170.132V3.08H168.536V1.136ZM179.887 1.808H181.183V3.428C181.183 6.284 180.199 8.864 177.991 9.884L177.043 8.564C178.975 7.724 179.887 5.588 179.887 3.428V1.808ZM180.199 1.808H181.495V3.428C181.495 5.48 182.371 7.52 184.267 8.336L183.331 9.62C181.183 8.636 180.199 6.164 180.199 3.428V1.808ZM184.795 0.943999H186.403V12.092H184.795V0.943999ZM196.506 5.156H198.462V6.464H196.506V5.156ZM195.318 0.943999H196.926V12.056H195.318V0.943999ZM188.55 2.012H190.146V8.912H188.55V2.012ZM188.55 8.024H189.51C191.094 8.024 192.81 7.916 194.598 7.556L194.766 8.864C192.93 9.248 191.142 9.344 189.51 9.344H188.55V8.024ZM201.473 6.596H203.057V9.716H201.473V6.596ZM205.505 6.596H207.101V9.716H205.505V6.596ZM199.265 9.488H209.321V10.784H199.265V9.488ZM204.281 1.496C206.669 1.496 208.433 2.672 208.433 4.484C208.433 6.296 206.669 7.46 204.281 7.46C201.881 7.46 200.129 6.296 200.129 4.484C200.129 2.672 201.881 1.496 204.281 1.496ZM204.281 2.744C202.733 2.744 201.701 3.38 201.701 4.484C201.701 5.576 202.733 6.224 204.281 6.224C205.829 6.224 206.861 5.576 206.861 4.484C206.861 3.38 205.829 2.744 204.281 2.744ZM212.097 8.38352V8.23864C212.099 7.74148 212.143 7.34517 212.229 7.04972C212.317 6.75426 212.445 6.51562 212.612 6.33381C212.78 6.15199 212.982 5.98722 213.217 5.83949C213.393 5.72585 213.551 5.60795 213.69 5.4858C213.83 5.36364 213.94 5.22869 214.023 5.08097C214.105 4.9304 214.146 4.76278 214.146 4.57812C214.146 4.3821 214.099 4.21023 214.006 4.0625C213.912 3.91477 213.786 3.80114 213.626 3.72159C213.47 3.64205 213.297 3.60227 213.107 3.60227C212.922 3.60227 212.747 3.64347 212.582 3.72585C212.418 3.8054 212.283 3.92472 212.178 4.08381C212.072 4.24006 212.016 4.43466 212.007 4.66761H210.268C210.283 4.09943 210.419 3.63068 210.678 3.26136C210.936 2.8892 211.278 2.61222 211.705 2.4304C212.131 2.24574 212.601 2.15341 213.115 2.15341C213.68 2.15341 214.18 2.24716 214.615 2.43466C215.05 2.61932 215.391 2.88778 215.638 3.24006C215.885 3.59233 216.009 4.01705 216.009 4.5142C216.009 4.84659 215.953 5.14205 215.842 5.40057C215.734 5.65625 215.582 5.88352 215.386 6.08239C215.19 6.27841 214.959 6.45597 214.692 6.61506C214.467 6.74858 214.283 6.88778 214.138 7.03267C213.996 7.17756 213.889 7.34517 213.818 7.53551C213.75 7.72585 213.714 7.96023 213.712 8.23864V8.38352H212.097ZM212.94 11.1108C212.656 11.1108 212.413 11.0114 212.212 10.8125C212.013 10.6108 211.915 10.3693 211.918 10.0881C211.915 9.80966 212.013 9.57102 212.212 9.37216C212.413 9.1733 212.656 9.07386 212.94 9.07386C213.21 9.07386 213.447 9.1733 213.652 9.37216C213.857 9.57102 213.96 9.80966 213.963 10.0881C213.96 10.2756 213.911 10.4474 213.814 10.6037C213.72 10.7571 213.597 10.8807 213.443 10.9744C213.29 11.0653 213.122 11.1108 212.94 11.1108Z" fill="#E6617A"/>
</svg>
