<svg width="254" height="38" viewBox="0 0 254 38" fill="none" xmlns="http://www.w3.org/2000/svg">
<path d="M20.2298 21.1136C19.7042 21.1136 19.2508 20.9976 18.8697 20.7656C18.4909 20.5312 18.1985 20.2045 17.9925 19.7855C17.7889 19.3641 17.6871 18.8741 17.6871 18.3153C17.6871 17.7566 17.7889 17.2642 17.9925 16.8381C18.1985 16.4096 18.485 16.0758 18.8519 15.8366C19.2212 15.5952 19.6521 15.4744 20.1445 15.4744C20.4286 15.4744 20.7092 15.5218 20.9862 15.6165C21.2631 15.7112 21.5153 15.8651 21.7425 16.0781C21.9698 16.2888 22.1509 16.5682 22.2859 16.9162C22.4208 17.2642 22.4883 17.6927 22.4883 18.2017V18.5568H18.2837V17.8324H21.636C21.636 17.5246 21.5745 17.25 21.4513 17.0085C21.3306 16.767 21.1578 16.5765 20.9329 16.4368C20.7103 16.2971 20.4476 16.2273 20.1445 16.2273C19.8107 16.2273 19.5219 16.3101 19.2781 16.4759C19.0366 16.6392 18.8507 16.8523 18.7205 17.1151C18.5903 17.3778 18.5252 17.6596 18.5252 17.9602V18.4432C18.5252 18.8551 18.5962 19.2043 18.7383 19.4908C18.8827 19.7749 19.0827 19.9915 19.3384 20.1406C19.5941 20.2874 19.8912 20.3608 20.2298 20.3608C20.4499 20.3608 20.6488 20.33 20.8263 20.2685C21.0063 20.2045 21.1613 20.1098 21.2915 19.9844C21.4218 19.8565 21.5224 19.6979 21.5934 19.5085L22.4031 19.7358C22.3178 20.0104 22.1746 20.2519 21.9734 20.4602C21.7721 20.6662 21.5236 20.8272 21.2276 20.9432C20.9317 21.0568 20.5991 21.1136 20.2298 21.1136ZM24.2417 15.5455L25.5485 17.7756L26.8553 15.5455H27.8212L26.0598 18.2727L27.8212 21H26.8553L25.5485 18.8835L24.2417 21H23.2757L25.0087 18.2727L23.2757 15.5455H24.2417ZM30.8068 17.9318C30.8068 18.8267 30.6896 19.6506 30.4553 20.4034C30.2232 21.1539 29.8906 21.8452 29.4574 22.4773H28.7188C28.8892 22.2429 29.0478 21.9541 29.1946 21.6108C29.3438 21.2699 29.474 20.8958 29.5852 20.4886C29.6965 20.0791 29.7829 19.6565 29.8445 19.2209C29.9084 18.7829 29.9403 18.3532 29.9403 17.9318C29.9403 17.3684 29.8859 16.7966 29.777 16.2166C29.6681 15.6366 29.5213 15.098 29.3366 14.6009C29.152 14.1037 28.946 13.6989 28.7188 13.3864H29.4574C29.8906 14.0185 30.2232 14.7109 30.4553 15.4638C30.6896 16.2143 30.8068 17.0369 30.8068 17.9318ZM41.3655 12.74H42.1955V18.18H41.3655V12.74ZM41.9655 15.14H43.5355V15.83H41.9655V15.14ZM36.5155 18.69H42.1955V21.66H36.5155V18.69ZM41.3855 19.36H37.3255V20.99H41.3855V19.36ZM35.2055 13.69H40.5455V14.37H35.2055V13.69ZM37.8755 14.81C39.1655 14.81 40.0355 15.45 40.0355 16.43C40.0355 17.41 39.1655 18.03 37.8755 18.03C36.5755 18.03 35.7055 17.41 35.7055 16.43C35.7055 15.45 36.5755 14.81 37.8755 14.81ZM37.8755 15.45C37.0455 15.45 36.4955 15.83 36.4955 16.43C36.4955 17.02 37.0455 17.4 37.8755 17.4C38.6855 17.4 39.2455 17.02 39.2455 16.43C39.2455 15.83 38.6855 15.45 37.8755 15.45ZM37.4555 12.66H38.2855V14.04H37.4555V12.66ZM45.8948 13.82H46.5948C46.5948 15.76 46.3348 17.89 45.0448 19.65L44.3948 19.27C45.6348 17.66 45.8948 15.77 45.8948 13.88V13.82ZM44.5848 13.82H46.3048V14.51H44.5848V13.82ZM47.8848 13.82H48.5948C48.5948 15.73 48.4748 18.27 47.0548 20.23L46.3948 19.85C47.7748 18.05 47.8848 15.7 47.8848 13.89V13.82ZM46.8948 13.82H48.3248V14.51H46.8948V13.82ZM51.2948 12.74H52.0948V21.78H51.2948V12.74ZM48.1748 16.29H49.7948V16.97H48.1748V16.29ZM49.6248 12.97H50.4048V21.32H49.6248V12.97ZM58.6465 14.22H59.3265V14.61C59.3265 16.16 58.3065 17.42 56.7965 17.91L56.3965 17.26C57.7365 16.85 58.6465 15.8 58.6465 14.61V14.22ZM58.7965 14.22H59.4765V14.61C59.4765 15.71 60.3565 16.7 61.6865 17.09L61.2965 17.75C59.7865 17.28 58.7965 16.06 58.7965 14.61V14.22ZM56.6465 13.8H61.4665V14.47H56.6465V13.8ZM58.6465 12.7H59.4765V14.07H58.6465V12.7ZM62.5765 12.74H63.4065V18.09H62.5765V12.74ZM63.1765 15.02H64.7465V15.72H63.1765V15.02ZM57.7265 18.51H63.4065V21.66H57.7265V18.51ZM62.5965 19.17H58.5365V20.99H62.5965V19.17ZM70.2357 14.63H72.3757V15.32H70.2357V14.63ZM67.8457 13.2H68.5257V14.14C68.5257 15.88 67.5557 17.31 66.0357 17.89L65.6057 17.23C66.9657 16.73 67.8457 15.52 67.8457 14.14V13.2ZM67.9957 13.2H68.6657V14.18C68.6657 15.42 69.5657 16.58 70.8657 17.04L70.4257 17.69C68.9757 17.14 67.9957 15.77 67.9957 14.18V13.2ZM66.9957 18.58H73.0257V21.78H72.1957V19.25H66.9957V18.58ZM72.1957 12.74H73.0257V18.08H72.1957V12.74ZM80.9149 12.74H81.7449V21.78H80.9149V12.74ZM81.5449 16.45H83.2249V17.15H81.5449V16.45ZM74.7449 14.18H80.0749V14.86H74.7449V14.18ZM77.4449 15.61C78.7249 15.61 79.6449 16.47 79.6449 17.69C79.6449 18.91 78.7249 19.77 77.4449 19.77C76.1749 19.77 75.2449 18.91 75.2449 17.69C75.2449 16.47 76.1749 15.61 77.4449 15.61ZM77.4449 16.3C76.6249 16.3 76.0349 16.87 76.0349 17.69C76.0349 18.5 76.6249 19.08 77.4449 19.08C78.2649 19.08 78.8549 18.5 78.8549 17.69C78.8549 16.87 78.2649 16.3 77.4449 16.3ZM77.0149 12.85H77.8449V14.49H77.0149V12.85ZM85.0941 15.45H91.2341V16.13H85.0941V15.45ZM83.9841 17.34H92.1841V18.02H83.9841V17.34ZM85.0941 13.07H85.9141V15.79H85.0941V13.07ZM85.0341 20.88H91.2841V21.56H85.0341V20.88ZM85.0341 18.92H85.8541V21.06H85.0341V18.92ZM102.576 12.75H103.416V19.35H102.576V12.75ZM97.6059 20.9H103.686V21.58H97.6059V20.9ZM97.6059 18.67H98.4259V21.13H97.6059V18.67ZM98.5659 13.37C99.9159 13.37 100.916 14.29 100.916 15.6C100.916 16.9 99.9159 17.83 98.5659 17.83C97.2159 17.83 96.2059 16.9 96.2059 15.6C96.2059 14.29 97.2159 13.37 98.5659 13.37ZM98.5659 14.09C97.6859 14.09 97.0159 14.71 97.0159 15.6C97.0159 16.48 97.6859 17.1 98.5659 17.1C99.4459 17.1 100.116 16.48 100.116 15.6C100.116 14.71 99.4459 14.09 98.5659 14.09ZM107.765 17.29H108.595V19.3H107.765V17.29ZM111.775 12.74H112.605V19.62H111.775V12.74ZM106.435 20.9H112.825V21.58H106.435V20.9ZM106.435 18.95H107.265V21.09H106.435V18.95ZM105.265 17.6L105.155 16.92C106.825 16.92 109.065 16.9 110.985 16.65L111.045 17.26C109.095 17.57 106.905 17.6 105.265 17.6ZM109.935 18.08H111.985V18.69H109.935V18.08ZM108.095 13.11C109.415 13.11 110.315 13.73 110.315 14.68C110.315 15.64 109.415 16.26 108.095 16.26C106.765 16.26 105.865 15.64 105.865 14.68C105.865 13.73 106.765 13.11 108.095 13.11ZM108.095 13.73C107.245 13.73 106.655 14.1 106.655 14.68C106.655 15.26 107.245 15.63 108.095 15.63C108.935 15.63 109.525 15.26 109.525 14.68C109.525 14.1 108.935 13.73 108.095 13.73ZM120.964 12.73H121.794V21.79H120.964V12.73ZM117.024 13.43C118.364 13.43 119.324 14.66 119.324 16.58C119.324 18.51 118.364 19.74 117.024 19.74C115.694 19.74 114.734 18.51 114.734 16.58C114.734 14.66 115.694 13.43 117.024 13.43ZM117.024 14.18C116.144 14.18 115.524 15.12 115.524 16.58C115.524 18.05 116.144 19.01 117.024 19.01C117.914 19.01 118.524 18.05 118.524 16.58C118.524 15.12 117.914 14.18 117.024 14.18ZM126.406 17.42H134.576V18.09H126.406V17.42ZM130.086 16.31H130.906V17.73H130.086V16.31ZM130.086 12.71H130.906V13.97H130.086V12.71ZM130.046 14.05H130.776V14.2C130.776 15.68 129.116 16.54 127.136 16.74L126.886 16.1C128.636 15.95 130.046 15.23 130.046 14.2V14.05ZM130.216 14.05H130.946V14.2C130.946 15.23 132.356 15.95 134.106 16.1L133.856 16.74C131.876 16.54 130.216 15.68 130.216 14.2V14.05ZM127.246 13.62H133.746V14.28H127.246V13.62ZM130.486 18.77C132.436 18.77 133.586 19.3 133.586 20.27C133.586 21.24 132.436 21.76 130.486 21.76C128.536 21.76 127.386 21.24 127.386 20.27C127.386 19.3 128.536 18.77 130.486 18.77ZM130.486 19.4C129.056 19.4 128.226 19.7 128.226 20.27C128.226 20.82 129.056 21.13 130.486 21.13C131.916 21.13 132.746 20.82 132.746 20.27C132.746 19.7 131.916 19.4 130.486 19.4ZM138.51 19.5085V18.7841L141.706 13.7273H142.232V14.8494H141.877L139.462 18.6705V18.7273H143.766V19.5085H138.51ZM141.933 21V19.2884V18.951V13.7273H142.771V21H141.933ZM149.154 14.2H151.764V14.88H149.154V14.2ZM149.154 16H151.784V16.67H149.154V16ZM151.444 12.74H152.274V18.09H151.444V12.74ZM145.254 13.42H149.384V17.44H145.254V13.42ZM148.564 14.09H146.064V16.78H148.564V14.09ZM149.304 18.35C151.164 18.35 152.314 18.98 152.314 20.06C152.314 21.14 151.164 21.76 149.304 21.76C147.434 21.76 146.284 21.14 146.284 20.06C146.284 18.98 147.434 18.35 149.304 18.35ZM149.304 19.01C147.944 19.01 147.114 19.4 147.114 20.06C147.114 20.72 147.944 21.11 149.304 21.11C150.664 21.11 151.494 20.72 151.494 20.06C151.494 19.4 150.664 19.01 149.304 19.01ZM156.573 13.07C157.923 13.07 158.913 13.89 158.913 15.08C158.913 16.26 157.923 17.08 156.573 17.08C155.233 17.08 154.243 16.26 154.243 15.08C154.243 13.89 155.233 13.07 156.573 13.07ZM156.573 13.75C155.703 13.75 155.043 14.3 155.043 15.08C155.043 15.86 155.703 16.4 156.573 16.4C157.453 16.4 158.103 15.86 158.103 15.08C158.103 14.3 157.453 13.75 156.573 13.75ZM160.613 12.74H161.453V17.37H160.613V12.74ZM155.603 17.81H161.453V20.01H156.433V21.37H155.623V19.39H160.633V18.48H155.603V17.81ZM155.623 21H161.753V21.66H155.623V21ZM170.375 14.4H172.795V15.08H170.375V14.4ZM170.295 16.28H172.735V16.96H170.295V16.28ZM172.655 12.74H173.485V18.16H172.655V12.74ZM169.825 13.42H170.715C170.715 15.75 169.105 17.38 166.505 18.16L166.165 17.49C168.475 16.82 169.825 15.49 169.825 13.78V13.42ZM166.635 13.42H170.395V14.1H166.635V13.42ZM170.545 18.26C172.375 18.26 173.535 18.91 173.535 20C173.535 21.09 172.375 21.74 170.545 21.74C168.715 21.74 167.555 21.09 167.555 20C167.555 18.91 168.715 18.26 170.545 18.26ZM170.545 18.91C169.225 18.91 168.375 19.32 168.375 20C168.375 20.68 169.225 21.08 170.545 21.08C171.875 21.08 172.725 20.68 172.725 20C172.725 19.32 171.875 18.91 170.545 18.91ZM175.244 17.92H183.444V18.6H175.244V17.92ZM178.904 18.34H179.724V21.78H178.904V18.34ZM179.324 13.1C181.214 13.1 182.484 13.87 182.484 15.08C182.484 16.29 181.214 17.06 179.324 17.06C177.444 17.06 176.164 16.29 176.164 15.08C176.164 13.87 177.444 13.1 179.324 13.1ZM179.324 13.77C177.944 13.77 177.004 14.28 177.004 15.08C177.004 15.88 177.944 16.39 179.324 16.39C180.704 16.39 181.634 15.88 181.634 15.08C181.634 14.28 180.704 13.77 179.324 13.77ZM187.831 17.9318C187.831 17.0369 187.947 16.2143 188.179 15.4638C188.413 14.7109 188.747 14.0185 189.18 13.3864H189.919C189.749 13.6207 189.589 13.9096 189.44 14.2528C189.293 14.5937 189.164 14.969 189.053 15.3786C188.941 15.7857 188.854 16.2071 188.79 16.6428C188.728 17.0784 188.697 17.508 188.697 17.9318C188.697 18.4953 188.752 19.067 188.861 19.647C188.97 20.227 189.116 20.7656 189.301 21.2628C189.486 21.7599 189.692 22.1648 189.919 22.4773H189.18C188.747 21.8452 188.413 21.1539 188.179 20.4034C187.947 19.6506 187.831 18.8267 187.831 17.9318ZM194.959 19.01C196.939 19.01 198.059 19.48 198.059 20.39C198.059 21.29 196.939 21.76 194.959 21.76C192.989 21.76 191.859 21.29 191.859 20.39C191.859 19.48 192.989 19.01 194.959 19.01ZM194.959 19.63C193.519 19.63 192.709 19.89 192.709 20.39C192.709 20.88 193.519 21.15 194.959 21.15C196.409 21.15 197.209 20.88 197.209 20.39C197.209 19.89 196.409 19.63 194.959 19.63ZM191.309 13.5H198.579V14.15H191.309V13.5ZM194.969 14.51C196.829 14.51 197.889 14.96 197.889 15.8C197.889 16.65 196.829 17.09 194.969 17.09C193.099 17.09 192.049 16.65 192.049 15.8C192.049 14.96 193.099 14.51 194.969 14.51ZM194.969 15.1C193.659 15.1 192.929 15.35 192.929 15.8C192.929 16.26 193.659 16.51 194.969 16.51C196.269 16.51 196.999 16.26 196.999 15.8C196.999 15.35 196.269 15.1 194.969 15.1ZM194.559 12.61H195.379V13.91H194.559V12.61ZM190.879 17.78H199.049V18.45H190.879V17.78ZM194.559 16.85H195.379V18.11H194.559V16.85ZM206.658 12.74H207.498V17.35H206.658V12.74ZM203.898 13.18H204.808C204.808 15.49 203.198 16.92 200.538 17.54L200.238 16.86C202.618 16.34 203.898 15.17 203.898 13.6V13.18ZM200.688 13.18H204.458V13.86H200.688V13.18ZM201.648 17.79H207.498V19.99H202.488V21.36H201.668V19.37H206.668V18.45H201.648V17.79ZM201.668 21.03H207.798V21.69H201.668V21.03ZM209.287 17.19H217.457V17.87H209.287V17.19ZM212.957 15.74H213.777V17.47H212.957V15.74ZM210.317 15.48H216.507V16.16H210.317V15.48ZM210.317 13.15H216.437V13.82H211.137V15.88H210.317V13.15ZM213.357 18.52C215.287 18.52 216.457 19.11 216.457 20.14C216.457 21.19 215.287 21.77 213.357 21.77C211.427 21.77 210.257 21.19 210.257 20.14C210.257 19.11 211.427 18.52 213.357 18.52ZM213.357 19.16C211.947 19.16 211.097 19.52 211.097 20.14C211.097 20.77 211.947 21.12 213.357 21.12C214.777 21.12 215.617 20.77 215.617 20.14C215.617 19.52 214.777 19.16 213.357 19.16ZM223.799 17.26H224.639V19.32H223.799V17.26ZM224.229 13.32C225.639 13.32 226.649 14.19 226.649 15.45C226.649 16.71 225.639 17.58 224.229 17.58C222.819 17.58 221.799 16.71 221.799 15.45C221.799 14.19 222.819 13.32 224.229 13.32ZM224.229 14.04C223.289 14.04 222.609 14.61 222.609 15.45C222.609 16.29 223.289 16.87 224.229 16.87C225.159 16.87 225.839 16.29 225.839 15.45C225.839 14.61 225.159 14.04 224.229 14.04ZM227.829 12.73H228.659V21.79H227.829V12.73ZM221.459 19.83L221.339 19.14C222.989 19.14 225.269 19.13 227.239 18.82L227.309 19.43C225.279 19.82 223.069 19.83 221.459 19.83ZM236.021 21.0994C235.552 21.0994 235.134 21.0189 234.767 20.858C234.403 20.697 234.113 20.4732 233.897 20.1868C233.684 19.898 233.568 19.563 233.549 19.1818H234.444C234.463 19.4162 234.544 19.6186 234.686 19.7891C234.828 19.9571 235.013 20.0874 235.243 20.1797C235.473 20.272 235.727 20.3182 236.007 20.3182C236.319 20.3182 236.596 20.2637 236.838 20.1548C237.079 20.0459 237.268 19.8944 237.406 19.7003C237.543 19.5062 237.612 19.2812 237.612 19.0256C237.612 18.758 237.545 18.5225 237.413 18.3189C237.28 18.1129 237.086 17.9519 236.83 17.8359C236.575 17.7199 236.262 17.6619 235.893 17.6619H235.311V16.8807H235.893C236.182 16.8807 236.435 16.8286 236.653 16.7244C236.873 16.6203 237.045 16.4735 237.168 16.2841C237.293 16.0947 237.356 15.8722 237.356 15.6165C237.356 15.3703 237.302 15.156 237.193 14.9737C237.084 14.7914 236.93 14.6494 236.731 14.5476C236.535 14.4458 236.302 14.3949 236.035 14.3949C235.784 14.3949 235.547 14.4411 235.325 14.5334C235.105 14.6233 234.925 14.7547 234.785 14.9276C234.645 15.098 234.57 15.304 234.558 15.5455H233.705C233.72 15.1643 233.834 14.8305 234.05 14.544C234.265 14.2552 234.547 14.0303 234.895 13.8693C235.245 13.7083 235.63 13.6278 236.049 13.6278C236.499 13.6278 236.885 13.719 237.207 13.9013C237.529 14.0812 237.776 14.3191 237.949 14.6151C238.122 14.911 238.208 15.2306 238.208 15.5739C238.208 15.9834 238.101 16.3326 237.885 16.6214C237.672 16.9103 237.382 17.1103 237.015 17.2216V17.2784C237.474 17.3542 237.833 17.5495 238.091 17.8643C238.349 18.1768 238.478 18.5639 238.478 19.0256C238.478 19.4209 238.37 19.776 238.155 20.0909C237.942 20.4034 237.651 20.6496 237.281 20.8295C236.912 21.0095 236.492 21.0994 236.021 21.0994ZM243.988 14.2H246.598V14.88H243.988V14.2ZM243.988 16H246.618V16.67H243.988V16ZM246.278 12.74H247.108V18.09H246.278V12.74ZM240.088 13.42H244.218V17.44H240.088V13.42ZM243.398 14.09H240.898V16.78H243.398V14.09ZM244.138 18.35C245.998 18.35 247.148 18.98 247.148 20.06C247.148 21.14 245.998 21.76 244.138 21.76C242.268 21.76 241.118 21.14 241.118 20.06C241.118 18.98 242.268 18.35 244.138 18.35ZM244.138 19.01C242.778 19.01 241.948 19.4 241.948 20.06C241.948 20.72 242.778 21.11 244.138 21.11C245.498 21.11 246.328 20.72 246.328 20.06C246.328 19.4 245.498 19.01 244.138 19.01ZM250.934 17.9318C250.934 18.8267 250.817 19.6506 250.582 20.4034C250.35 21.1539 250.018 21.8452 249.584 22.4773H248.846C249.016 22.2429 249.175 21.9541 249.322 21.6108C249.471 21.2699 249.601 20.8958 249.712 20.4886C249.823 20.0791 249.91 19.6565 249.971 19.2209C250.035 18.7829 250.067 18.3532 250.067 17.9318C250.067 17.3684 250.013 16.7966 249.904 16.2166C249.795 15.6366 249.648 15.098 249.464 14.6009C249.279 14.1037 249.073 13.6989 248.846 13.3864H249.584C250.018 14.0185 250.35 14.7109 250.582 15.4638C250.817 16.2143 250.934 17.0369 250.934 17.9318Z" fill="black" fill-opacity="0.5"/>
<path d="M18.8038 29.2708H19.579V29.7154C19.579 31.4824 18.4162 32.9188 16.6948 33.4774L16.2388 32.7364C17.7664 32.269 18.8038 31.072 18.8038 29.7154V29.2708ZM18.9748 29.2708H19.75V29.7154C19.75 30.9694 20.7532 32.098 22.2694 32.5426L21.8248 33.295C20.1034 32.7592 18.9748 31.3684 18.9748 29.7154V29.2708ZM16.5238 28.792H22.0186V29.5558H16.5238V28.792ZM18.8038 27.538H19.75V29.0998H18.8038V27.538ZM23.284 27.5836H24.2302V33.6826H23.284V27.5836ZM23.968 30.1828H25.7578V30.9808H23.968V30.1828ZM17.755 34.1614H24.2302V37.7524H17.755V34.1614ZM23.3068 34.9138H18.6784V36.9886H23.3068V34.9138ZM32.0155 29.7382H34.4551V30.5248H32.0155V29.7382ZM29.2909 28.108H30.0661V29.1796C30.0661 31.1632 28.9603 32.7934 27.2275 33.4546L26.7373 32.7022C28.2877 32.1322 29.2909 30.7528 29.2909 29.1796V28.108ZM29.4619 28.108H30.2257V29.2252C30.2257 30.6388 31.2517 31.9612 32.7337 32.4856L32.2321 33.2266C30.5791 32.5996 29.4619 31.0378 29.4619 29.2252V28.108ZM28.3219 34.2412H35.1961V37.8892H34.2499V35.005H28.3219V34.2412ZM34.2499 27.5836H35.1961V33.6712H34.2499V27.5836ZM44.8698 29.875H47.982V30.6616H44.8698V29.875ZM44.8698 33.1354H47.982V33.922H44.8698V33.1354ZM42.9774 28.3702C44.4708 28.3702 45.5424 29.7724 45.5424 31.9612C45.5424 34.1614 44.4708 35.5636 42.9774 35.5636C41.4726 35.5636 40.4124 34.1614 40.4124 31.9612C40.4124 29.7724 41.4726 28.3702 42.9774 28.3702ZM42.9774 29.2252C41.9856 29.2252 41.3016 30.2968 41.3016 31.9612C41.3016 33.637 41.9856 34.7314 42.9774 34.7314C43.9692 34.7314 44.6532 33.637 44.6532 31.9612C44.6532 30.2968 43.9692 29.2252 42.9774 29.2252ZM47.7768 27.5722H48.7116V37.9006H47.7768V27.5722ZM50.7057 33.6826H60.0537V34.4578H50.7057V33.6826ZM54.8781 34.0474H55.8129V37.8892H54.8781V34.0474ZM51.8799 27.994H52.8261V29.4076H57.9219V27.994H58.8567V32.4514H51.8799V27.994ZM52.8261 30.1714V31.6876H57.9219V30.1714H52.8261ZM61.1928 32.3716H70.5408V33.0898H61.1928V32.3716ZM62.2986 33.922H69.3666V36.1222H63.2676V37.3306H62.3328V35.4724H68.4432V34.5946H62.2986V33.922ZM62.3328 37.0798H69.6972V37.7638H62.3328V37.0798ZM62.3784 27.88H69.3324V30.0232H63.336V31.1404H62.4012V29.3848H68.409V28.5526H62.3784V27.88ZM62.4012 30.9124H69.5262V31.5964H62.4012V30.9124ZM81.7535 27.5836H82.6997V32.8276H81.7535V27.5836ZM82.2893 29.7952H84.2159V30.5818H82.2893V29.7952ZM76.1561 33.3178H82.6997V35.8486H77.1137V37.3876H76.1789V35.1304H81.7763V34.0702H76.1561V33.3178ZM76.1789 36.9886H83.0759V37.7524H76.1789V36.9886ZM77.5469 27.9484C79.0973 27.9484 80.2145 28.8946 80.2145 30.2398C80.2145 31.5964 79.0973 32.5426 77.5469 32.5426C76.0193 32.5426 74.8907 31.5964 74.8907 30.2398C74.8907 28.8946 76.0193 27.9484 77.5469 27.9484ZM77.5469 28.7236C76.5551 28.7236 75.8141 29.3506 75.8141 30.2398C75.8141 31.1404 76.5551 31.7674 77.5469 31.7674C78.5615 31.7674 79.3025 31.1404 79.3025 30.2398C79.3025 29.3506 78.5615 28.7236 77.5469 28.7236ZM92.7194 27.5722H93.6656V37.9006H92.7194V27.5722ZM90.6902 29.932H92.9702V30.7072H90.6902V29.932ZM85.5716 34.7086H86.3354C87.9314 34.7086 89.2424 34.663 90.8156 34.4122L90.9068 35.1988C89.288 35.4496 87.9656 35.5066 86.3354 35.5066H85.5716V34.7086ZM85.5488 28.507H90.0518V32.2006H86.5064V34.891H85.5716V31.4254H89.117V29.2936H85.5488V28.507ZM90.6218 32.7478H92.9018V33.523H90.6218V32.7478ZM99.8093 28.5982H100.63V29.0314C100.63 30.8782 98.6693 32.2348 96.5945 32.5882L96.2297 31.8358C98.0423 31.5736 99.8093 30.388 99.8093 29.0314V28.5982ZM100.049 28.5982H100.858V29.0314C100.858 30.388 102.637 31.5736 104.438 31.8358L104.084 32.5882C101.998 32.2348 100.049 30.8782 100.049 29.0314V28.5982ZM99.8435 33.9562H100.778V37.8892H99.8435V33.9562ZM95.6825 33.4546H104.996V34.2298H95.6825V33.4546ZM96.5489 28.222H104.096V28.9858H96.5489V28.222ZM108.883 28.4728H109.658V30.3196C109.658 32.6908 108.381 34.891 106.694 35.746L106.113 34.9708C107.64 34.2412 108.883 32.269 108.883 30.3196V28.4728ZM109.042 28.4728H109.818V30.3196C109.818 32.2006 111.049 34.093 112.576 34.7998L112.006 35.5522C110.331 34.7314 109.042 32.611 109.042 30.3196V28.4728ZM113.648 27.5722H114.594V37.9006H113.648V27.5722ZM121.593 29.3962H124.477V30.1714H121.593V29.3962ZM121.593 31.5964H124.5V32.383H121.593V31.5964ZM117.124 28.4728H121.832V33.3064H117.124V28.4728ZM120.898 29.2366H118.048V32.5426H120.898V29.2366ZM124.181 27.595H125.127V35.119H124.181V27.595ZM118.504 36.886H125.378V37.6612H118.504V36.886ZM118.504 34.435H119.45V37.2394H118.504V34.435ZM130.674 34.5604H131.46C133.376 34.5604 134.607 34.5148 136.043 34.2412L136.146 35.0164C134.664 35.29 133.421 35.3584 131.46 35.3584H130.674V34.5604ZM130.674 28.564H135.359V29.3392H131.609V34.8568H130.674V28.564ZM137.708 27.5836H138.654V37.912H137.708V27.5836ZM134.755 31.3114H138.095V32.098H134.755V31.3114ZM146.401 28.3702C147.917 28.3702 148.989 29.7724 148.989 31.9612C148.989 34.1614 147.917 35.5636 146.401 35.5636C144.885 35.5636 143.813 34.1614 143.813 31.9612C143.813 29.7724 144.885 28.3702 146.401 28.3702ZM146.401 29.2252C145.398 29.2252 144.714 30.2968 144.714 31.9612C144.714 33.637 145.398 34.7314 146.401 34.7314C147.393 34.7314 148.088 33.637 148.088 31.9612C148.088 30.2968 147.393 29.2252 146.401 29.2252ZM150.63 27.5836H151.588V37.8892H150.63V27.5836ZM151.36 31.699H153.275V32.497H151.36V31.699ZM154.141 32.896H163.489V33.6712H154.141V32.896ZM155.326 27.8344H162.28V30.274H156.284V31.642H155.349V29.5786H161.357V28.5754H155.326V27.8344ZM155.349 31.2772H162.508V32.0182H155.349V31.2772ZM155.395 34.606H162.292V37.7524H155.395V34.606ZM161.368 35.3584H156.318V36.9886H161.368V35.3584ZM171.684 27.5836H172.631V33.0784H171.684V27.5836ZM172.368 29.989H174.158V30.7756H172.368V29.989ZM165.107 31.9498H165.905C168.025 31.9498 169.222 31.8814 170.601 31.6078L170.704 32.3716C169.29 32.668 168.071 32.7364 165.905 32.7364H165.107V31.9498ZM165.107 28.2562H169.644V29.0314H166.041V32.4856H165.107V28.2562ZM166.133 33.637H167.067V34.9024H171.696V33.637H172.631V37.7182H166.133V33.637ZM167.067 35.6548V36.943H171.696V35.6548H167.067ZM182.969 27.5836H183.881V37.8892H182.969V27.5836ZM178.501 31.7902H181.1V32.554H178.501V31.7902ZM180.826 27.8458H181.715V37.3648H180.826V27.8458ZM178.626 28.8832H179.538C179.538 31.585 178.455 34.0132 175.673 35.6662L175.115 34.9936C177.543 33.5344 178.626 31.4824 178.626 29.0542V28.8832ZM175.571 28.8832H178.979V29.6584H175.571V28.8832ZM192.666 28.5526H193.51V28.8604C193.51 30.6046 191.651 31.8244 189.542 32.1436L189.189 31.3798C191.013 31.1404 192.666 30.1144 192.666 28.8604V28.5526ZM193.065 28.5526H193.897V28.8604C193.897 30.1144 195.562 31.1404 197.386 31.3798L197.021 32.1436C194.923 31.8244 193.065 30.6046 193.065 28.8604V28.5526ZM189.474 28.0966H197.101V28.8604H189.474V28.0966ZM188.619 32.8846H197.956V33.6598H188.619V32.8846ZM192.883 33.3634H193.829V35.7346H192.883V33.3634ZM189.805 36.886H196.918V37.6612H189.805V36.886ZM189.805 34.7428H190.739V37.1824H189.805V34.7428ZM206.596 27.5722H207.542V37.9006H206.596V27.5722ZM199.699 28.45H200.634V31.1746H203.609V28.45H204.555V35.4154H199.699V28.45ZM200.634 31.927V34.6402H203.609V31.927H200.634ZM209.582 29.3392H214.689V30.1144H209.582V29.3392ZM212.135 30.7984C213.424 30.7984 214.358 31.7674 214.358 33.1582C214.358 34.5376 213.424 35.5066 212.135 35.5066C210.859 35.5066 209.924 34.5376 209.924 33.1582C209.924 31.7674 210.859 30.7984 212.135 30.7984ZM212.135 31.6078C211.349 31.6078 210.779 32.2462 210.779 33.1582C210.779 34.0702 211.349 34.7086 212.135 34.7086C212.933 34.7086 213.515 34.0702 213.515 33.1582C213.515 32.2462 212.933 31.6078 212.135 31.6078ZM217.414 27.5836H218.326V37.8892H217.414V27.5836ZM215.772 31.9156H217.721V32.7022H215.772V31.9156ZM215.213 27.8116H216.103V37.3876H215.213V27.8116ZM211.679 27.88H212.614V29.818H211.679V27.88ZM224.34 27.7432H225.275V28.7008H230.256V27.7432H231.203V31.1404H224.34V27.7432ZM225.275 29.4304V30.4108H230.256V29.4304H225.275ZM223.097 32.1322H232.411V32.896H223.097V32.1322ZM227.281 30.7984H228.216V32.3716H227.281V30.7984ZM224.226 33.751H231.225V36.0424H225.183V37.3192H224.249V35.3584H230.291V34.4692H224.226V33.751ZM224.249 37.0456H231.533V37.7752H224.249V37.0456ZM241.439 27.5836H242.351V37.8892H241.439V27.5836ZM236.97 31.7902H239.569V32.554H236.97V31.7902ZM239.296 27.8458H240.185V37.3648H239.296V27.8458ZM237.096 28.8832H238.008C238.008 31.585 236.925 34.0132 234.143 35.6662L233.584 34.9936C236.013 33.5344 237.096 31.4824 237.096 29.0542V28.8832ZM234.04 28.8832H237.449V29.6584H234.04V28.8832ZM246.363 32.8846H247.298V35.974H246.363V32.8846ZM250.17 32.8846H251.117V35.974H250.17V32.8846ZM244.083 35.7916H253.419V36.5782H244.083V35.7916ZM248.734 28.2334C250.911 28.2334 252.473 29.2708 252.473 30.8896C252.473 32.497 250.911 33.5344 248.734 33.5344C246.545 33.5344 244.983 32.497 244.983 30.8896C244.983 29.2708 246.545 28.2334 248.734 28.2334ZM248.734 28.9858C247.081 28.9858 245.895 29.7382 245.895 30.8896C245.895 32.0296 247.081 32.782 248.734 32.782C250.387 32.782 251.561 32.0296 251.561 30.8896C251.561 29.7382 250.387 28.9858 248.734 28.9858Z" fill="#E6617A"/>
</svg>
